/* XPM */
static char * maximize_inactive_xpm[] = {
"26 24 285 2",
"  	c None",
". 	c #9CA2A4",
"+ 	c #6A87A2",
"@ 	c #708FA2",
"# 	c #6F8CA1",
"$ 	c #718C9F",
"% 	c #7992A3",
"& 	c #7593A3",
"* 	c #7893A2",
"= 	c #7896A4",
"- 	c #7993A3",
"; 	c #7C95A4",
"> 	c #7F98A3",
", 	c #8299A4",
"' 	c #8296A4",
") 	c #8594A1",
"! 	c #8495A4",
"~ 	c #8293A4",
"{ 	c #8091A2",
"] 	c #8090A2",
"^ 	c #7B8FA3",
"/ 	c #798EA3",
"( 	c #788EA4",
"_ 	c #788DA0",
": 	c #718EA3",
"< 	c #6D8A9F",
"[ 	c #386D86",
"} 	c #87868A",
"| 	c #5D748D",
"1 	c #65798D",
"2 	c #65768D",
"3 	c #6C748E",
"4 	c #6A7386",
"5 	c #79828B",
"6 	c #7B838B",
"7 	c #7D848B",
"8 	c #7F848B",
"9 	c #83858B",
"0 	c #85888D",
"a 	c #87878D",
"b 	c #89898D",
"c 	c #848A8E",
"d 	c #83878D",
"e 	c #83868D",
"f 	c #7F838D",
"g 	c #7C808C",
"h 	c #7A7F8C",
"i 	c #797E8B",
"j 	c #777F8B",
"k 	c #6C788C",
"l 	c #6A788E",
"m 	c #59758D",
"n 	c #254E6D",
"o 	c #65738D",
"p 	c #116689",
"q 	c #106686",
"r 	c #0F6E89",
"s 	c #126F8A",
"t 	c #16738E",
"u 	c #12658C",
"v 	c #14668C",
"w 	c #15648D",
"x 	c #17668B",
"y 	c #17638B",
"z 	c #1A688C",
"A 	c #1C668C",
"B 	c #1F678D",
"C 	c #1F618B",
"D 	c #215F8B",
"E 	c #215E8D",
"F 	c #215D8B",
"G 	c #215A8B",
"H 	c #215B8D",
"I 	c #1F5B8D",
"J 	c #1C598C",
"K 	c #1F5B85",
"L 	c #176589",
"M 	c #1B6587",
"N 	c #006372",
"O 	c #5B6D8D",
"P 	c #136F8D",
"Q 	c #0A6688",
"R 	c #17758D",
"S 	c #12728E",
"T 	c #146A8E",
"U 	c #176A8D",
"V 	c #18688E",
"W 	c #19688D",
"X 	c #1C6A8E",
"Y 	c #1E6A8E",
"Z 	c #19618B",
"` 	c #1D638B",
" .	c #21638D",
"..	c #205C8A",
"+.	c #225E8C",
"@.	c #24608E",
"#.	c #21618D",
"$.	c #1E638E",
"%.	c #14628A",
"&.	c #1A6F8E",
"*.	c #00596C",
"=.	c #4B5B87",
"-.	c #156D8D",
";.	c #0C658A",
">.	c #126E8C",
",.	c #0A638C",
"'.	c #15638B",
").	c #16648C",
"!.	c #17658D",
"~.	c #18668E",
"{.	c #19658D",
"].	c #1C648E",
"^.	c #1F628D",
"/.	c #1F608D",
"(.	c #205D8C",
"_.	c #1C5F8A",
":.	c #19608D",
"<.	c #1A618E",
"[.	c #16708E",
"}.	c #005368",
"|.	c #2C438C",
"1.	c #055689",
"2.	c #07598D",
"3.	c #0A5E8E",
"4.	c #095D8D",
"5.	c #025A8C",
"6.	c #075389",
"7.	c #0A538C",
"8.	c #0D528D",
"9.	c #0C518C",
"0.	c #0A508C",
"a.	c #0D4E8B",
"b.	c #0E4788",
"c.	c #0E4D8E",
"d.	c #114B8D",
"e.	c #124C8E",
"f.	c #124B8C",
"g.	c #14568E",
"h.	c #17598B",
"i.	c #0C4C88",
"j.	c #074967",
"k.	c #124F8E",
"l.	c #007688",
"m.	c #00788E",
"n.	c #00778C",
"o.	c #007C8E",
"p.	c #007B8A",
"q.	c #007D8C",
"r.	c #007A8C",
"s.	c #00758E",
"t.	c #00738C",
"u.	c #006E8E",
"v.	c #00698C",
"w.	c #00638C",
"x.	c #00608C",
"y.	c #005C8C",
"z.	c #005E8A",
"A.	c #00598C",
"B.	c #00588A",
"C.	c #00576A",
"D.	c #0C4F8E",
"E.	c #007F8E",
"F.	c #00808C",
"G.	c #00728E",
"H.	c #006B8E",
"I.	c #00658A",
"J.	c #00568C",
"K.	c #00518A",
"L.	c #004F66",
"M.	c #03518D",
"N.	c #007D88",
"O.	c #007F8A",
"P.	c #00788A",
"Q.	c #00708C",
"R.	c #006B8A",
"S.	c #006688",
"T.	c #00618A",
"U.	c #005B8A",
"V.	c #00528C",
"W.	c #004A62",
"X.	c #005A8E",
"Y.	c #00828A",
"Z.	c #00828E",
"`.	c #006D8C",
" +	c #00668C",
".+	c #015A8D",
"++	c #00578E",
"@+	c #004C62",
"#+	c #00858A",
"$+	c #00848C",
"%+	c #00758A",
"&+	c #005586",
"*+	c #005286",
"=+	c #004258",
"-+	c #008E8C",
";+	c #008C8E",
">+	c #008A8C",
",+	c #00898E",
"'+	c #00688A",
")+	c #005D88",
"!+	c #005A88",
"~+	c #005388",
"{+	c #00445A",
"]+	c #007286",
"^+	c #008A88",
"/+	c #008684",
"(+	c #008482",
"_+	c #00888A",
":+	c #008088",
"<+	c #007A88",
"[+	c #006E86",
"}+	c #006882",
"|+	c #006B82",
"1+	c #006380",
"2+	c #005D80",
"3+	c #005A80",
"4+	c #00567E",
"5+	c #005480",
"6+	c #005484",
"7+	c #00507E",
"8+	c #004050",
"9+	c #050C0D",
"0+	c #030C0D",
"a+	c #00080A",
"b+	c #020E0E",
"c+	c #020B0C",
"d+	c #030F0E",
"e+	c #020406",
"f+	c #040608",
"g+	c #040808",
"h+	c #020C09",
"i+	c #030D0D",
"j+	c #000408",
"k+	c #030D0C",
"l+	c #00090C",
"m+	c #01050B",
"n+	c #020A08",
"o+	c #020E0B",
"p+	c #00090E",
"q+	c #00070A",
"r+	c #010B0A",
"s+	c #010B0B",
"t+	c #030B08",
"u+	c #02090A",
"v+	c #04090A",
"w+	c #030407",
"x+	c #56544E",
"y+	c #585550",
"z+	c #5A5852",
"A+	c #5C5954",
"B+	c #605C56",
"C+	c #615E59",
"D+	c #65605B",
"E+	c #67635D",
"F+	c #696561",
"G+	c #6C6962",
"H+	c #6E6A64",
"I+	c #706C66",
"J+	c #726D68",
"K+	c #75716B",
"L+	c #77736D",
"M+	c #79736F",
"N+	c #7C7770",
"O+	c #7E7872",
"P+	c #7F7973",
"Q+	c #817B77",
"R+	c #837D77",
"S+	c #847E7A",
"T+	c #86807A",
"U+	c #88817C",
"V+	c #89827D",
"W+	c #8A837E",
"X+	c #2B292D",
"Y+	c #1C1C1C",
"Z+	c #242424",
"`+	c #1D1D1D",
" @	c #1B1B1B",
".@	c #1E1E1E",
"+@	c #1A1A1A",
"@@	c #191919",
"#@	c #1F1F1F",
"$@	c #202020",
"%@	c #161616",
"&@	c #171717",
"*@	c #181818",
". + @ # $ % & * = - ; > , ' ) ! ~ { ] ^ / ( _ : < [ ",
"} | 1 2 3 4 5 6 7 8 9 0 a b c d e f g h i j k l m n ",
"o p q r s t u v w x y z A B C D E F G H I J K L M N ",
"O P Q R S T U V W W V W X Y Z `  ...+.@.@.#.$.%.&.*.",
"=.-.;.t >.,.%.'.).'.%.%.!.~.{.].^./.(.#./._.:.<.[.}.",
"|.1.2.3.4.5.6.7.8.9.0.0.a.b.c.d.e.e.f.f.e.d.g.h.i.j.",
"k.l.m.n.o.p.q.r.s.t.m.s.u.v.w.w.x.y.y.y.y.z.A.A.B.C.",
"D.p.E.q.E.q.F.E.m.m.o.m.G.H.I.w.w.x.y.y.y.x.B.J.K.L.",
"M.N.O.P.E.q.p.n.t.s.t.Q.R.S.I.T.z.U.B.B.B.B.B.J.V.W.",
"X.Y.Y.F.E.Z.Z.o.m.m.m.s.G.`. + +w.y.A.B.B.A.y..+++@+",
" +#+#+#+$+$+q.P.P.l.l.%+R.I.v. +T.z.U.U.B.B.&+&+*+=+",
"s.-+-+;+>+,+F.r.P.P.P.%+R.'+Q.`.v. +z.)+!+U.B.&+~+{+",
"]+^+/+/+(+_+:+O.p.<+<+l.[+}+|+}+1+2+3+4+5+6+6+5+7+8+",
"9+0+a+b+c+d+e+f+g+h+i+j+k+l+m+n+o+p+q+r+q+s+t+u+v+w+",
"x+y+z+A+B+C+D+E+F+G+H+I+J+K+L+M+N+O+P+Q+R+S+T+U+V+W+",
"X+X+X+X+X+X+X+X+X+X+X+X+X+X+X+X+X+X+X+X+X+X+X+X+X+X+",
"Y+Y+Y+Y+Y+Y+Y+Y+Y+Y+Y+Y+Y+Y+Y+Y+Y+Y+Y+Y+Y+Y+Y+Y+Y+Z+",
"`+`+`+`+`+`+`+`+`+`+`+`+`+`+`+`+`+`+`+`+`+`+`+`+`+`+",
" @ @ @ @ @ @ @ @ @ @ @ @ @ @ @Y+`+`+.@.@.@.@.@.@`+`+",
" @ @+@+@+@+@@@@@@@+@+@ @Y+ @ @Y+`+.@#@$@#@#@#@#@#@.@",
"%@%@%@%@%@&@&@&@&@*@@@+@ @`+`+`+`+`+`+`+`+`+`+`+`+`+",
"*@*@@@@@@@`+`+`+.@$@$@$@$@$@$@$@$@$@$@$@$@$@$@$@$@$@",
"#@#@#@#@$@#@#@#@#@#@#@#@#@#@#@#@#@#@#@#@#@#@#@#@#@#@",
"*@*@*@*@*@*@*@*@*@*@*@*@*@*@*@*@*@*@*@*@*@*@*@*@*@*@"};
