/* XPM */
static char * maximize_pressed_xpm[] = {
"26 24 395 2",
"  	c None",
". 	c #FBFFFD",
"+ 	c #B1DEFB",
"@ 	c #BCE9FE",
"# 	c #C1EFFF",
"$ 	c #BAE4FA",
"% 	c #B5D9FD",
"& 	c #C2EBFC",
"* 	c #CEEAF4",
"= 	c #CAF4FE",
"- 	c #C3E9FF",
"; 	c #C8EDFE",
"> 	c #D5F7FF",
", 	c #D5F9FF",
"' 	c #CFEBFF",
") 	c #DAEEF4",
"! 	c #D6F4FE",
"~ 	c #CCF1FE",
"{ 	c #CFF4FF",
"] 	c #D5F4FF",
"^ 	c #C5EFFF",
"/ 	c #C8EBFE",
"( 	c #BADCF6",
"_ 	c #BCE2FC",
": 	c #C3EAFF",
"< 	c #78C5DC",
"[ 	c #FDF7FF",
"} 	c #B7DBFF",
"| 	c #BCE1FE",
"1 	c #C5E6FF",
"2 	c #C5DCFF",
"3 	c #D1ECFF",
"4 	c #D9EEFF",
"5 	c #E0F2FE",
"6 	c #E5F8FF",
"7 	c #EEECF8",
"8 	c #F3FBFF",
"9 	c #F5F7FF",
"0 	c #FFF5FB",
"a 	c #FDFFFD",
"b 	c #F8F9FE",
"c 	c #F1EDFB",
"d 	c #F0EFFD",
"e 	c #E5E9F3",
"f 	c #ECEBF9",
"g 	c #E3E4F5",
"h 	c #DFEAFD",
"i 	c #D4EAFE",
"j 	c #CFE0FF",
"k 	c #C4D8FC",
"l 	c #BFDCFD",
"m 	c #77AED1",
"n 	c #C0D9FE",
"o 	c #55DDFF",
"p 	c #51DEFD",
"q 	c #55E1FB",
"r 	c #44DEFA",
"s 	c #45DEFF",
"t 	c #4ADBF6",
"u 	c #4FE6FD",
"v 	c #49E3FF",
"w 	c #4DDBFF",
"x 	c #55E0F9",
"y 	c #3591AB",
"z 	c #1A5366",
"A 	c #318D9B",
"B 	c #55D7FD",
"C 	c #4DD3FF",
"D 	c #56CFFC",
"E 	c #57CDFF",
"F 	c #49D2FF",
"G 	c #4BD2FF",
"H 	c #41CBFF",
"I 	c #53D2F7",
"J 	c #51DCFF",
"K 	c #53DCFF",
"L 	c #52D7F8",
"M 	c #32B5D6",
"N 	c #B3C0F9",
"O 	c #4BDFFF",
"P 	c #4DD8FB",
"Q 	c #51E2FD",
"R 	c #4DE8FF",
"S 	c #47CFF1",
"T 	c #5BECF9",
"U 	c #59EFF9",
"V 	c #3FDDFF",
"W 	c #45D9F9",
"X 	c #43A0B1",
"Y 	c #103E56",
"Z 	c #6599A1",
"` 	c #1E4B56",
" .	c #298A9F",
"..	c #61E0FB",
"+.	c #5CDBFA",
"@.	c #54DAFC",
"#.	c #53E4FF",
"$.	c #5AE5FE",
"%.	c #4CDEFE",
"&.	c #55CFF3",
"*.	c #53E0FF",
"=.	c #50E0FA",
"-.	c #2FB6D3",
";.	c #9EC9FE",
">.	c #51E4FF",
",.	c #4ED7FA",
"'.	c #55E5FF",
").	c #4AD2F4",
"!.	c #49DFFF",
"~.	c #4FE8FF",
"{.	c #4FDEF7",
"].	c #47DAFF",
"^.	c #3BAFC1",
"/.	c #1A4A56",
"(.	c #6CACC6",
"_.	c #6ECFDE",
":.	c #83BCCF",
"<.	c #10445A",
"[.	c #3289A6",
"}.	c #50D9FC",
"|.	c #50E2F8",
"1.	c #4DECFF",
"2.	c #53EDFF",
"3.	c #47E0F7",
"4.	c #51E8FF",
"5.	c #37CBD9",
"6.	c #7895F4",
"7.	c #3EBAFA",
"8.	c #41C6FD",
"9.	c #42BCFC",
"0.	c #43C8FF",
"a.	c #39BBFF",
"b.	c #3CB1F4",
"c.	c #41BEFF",
"d.	c #68C7F4",
"e.	c #76AADA",
"f.	c #58A7E4",
"g.	c #002D54",
"h.	c #4787C3",
"i.	c #7CAFE4",
"j.	c #68B7F4",
"k.	c #39B7F9",
"l.	c #36BAF8",
"m.	c #40BCF6",
"n.	c #3DBAF5",
"o.	c #47C9F9",
"p.	c #3CBDF2",
"q.	c #3FC0F5",
"r.	c #34AFE8",
"s.	c #40C9F6",
"t.	c #29A7C7",
"u.	c #549AF8",
"v.	c #0FD7FB",
"w.	c #0DD4FF",
"x.	c #15DBFF",
"y.	c #11D5FF",
"z.	c #0BC9F9",
"A.	c #0DC7FD",
"B.	c #17D0FF",
"C.	c #0FCFFF",
"D.	c #19D6FF",
"E.	c #1FC8F3",
"F.	c #1EBEEC",
"G.	c #073947",
"H.	c #2CB7DA",
"I.	c #3DE1FF",
"J.	c #1CD8FA",
"K.	c #0CD2F6",
"L.	c #09C8EB",
"M.	c #0FD6ED",
"N.	c #09D3EB",
"O.	c #09D1E9",
"P.	c #0FCEE5",
"Q.	c #06C3DA",
"R.	c #01BAD5",
"S.	c #07C8DF",
"T.	c #06A0B2",
"U.	c #4497F4",
"V.	c #1BE1FF",
"W.	c #09DFFF",
"X.	c #0FE0FF",
"Y.	c #0FD0F9",
"Z.	c #11DAFF",
"`.	c #10D2FC",
" +	c #1FE2FF",
".+	c #15D0FF",
"++	c #17D5F7",
"@+	c #1ED7F2",
"#+	c #1EBEE6",
"$+	c #0D434D",
"%+	c #2DAFD5",
"&+	c #17BFEF",
"*+	c #12CFFE",
"=+	c #14D2F4",
"-+	c #08D4EC",
";+	c #0AC4E0",
">+	c #06BDDE",
",+	c #09C8DF",
"'+	c #07BAD5",
")+	c #00A6C4",
"!+	c #02B7CC",
"~+	c #0794A1",
"{+	c #35ACFF",
"]+	c #05C9F3",
"^+	c #13DDFB",
"/+	c #0BCCEF",
"(+	c #0BCFF9",
"_+	c #0DD8FD",
":+	c #15E0FF",
"<+	c #06C0F6",
"[+	c #13D5FF",
"}+	c #1A9EB2",
"|+	c #00495E",
"1+	c #2AAEC6",
"2+	c #5DB1E1",
"3+	c #38BEDA",
"4+	c #0A4F68",
"5+	c #0E83A0",
"6+	c #0FDAFF",
"7+	c #03D4ED",
"8+	c #09CAE1",
"9+	c #05CBE3",
"0+	c #0ABDD2",
"a+	c #06B0CE",
"b+	c #00B6CC",
"c+	c #04B5CA",
"d+	c #03BECF",
"e+	c #0594A1",
"f+	c #2DADFF",
"g+	c #09D3F7",
"h+	c #0CDFF8",
"i+	c #0CD7F6",
"j+	c #0ADEFE",
"k+	c #09D3FF",
"l+	c #0BD9FF",
"m+	c #10D6FA",
"n+	c #0FCEF7",
"o+	c #3BD0FB",
"p+	c #30819C",
"q+	c #0E5560",
"r+	c #35AFC1",
"s+	c #094361",
"t+	c #266380",
"u+	c #50D1F2",
"v+	c #17DFFD",
"w+	c #10D7EE",
"x+	c #05B8D9",
"y+	c #02BEDA",
"z+	c #0EC9DA",
"A+	c #08A6BE",
"B+	c #00B4C4",
"C+	c #0EBECE",
"D+	c #01AEC3",
"E+	c #068A9E",
"F+	c #26A7F8",
"G+	c #0CC5FA",
"H+	c #0AD3F8",
"I+	c #0ACFFA",
"J+	c #07D3FF",
"K+	c #0CD7FC",
"L+	c #07C1F7",
"M+	c #18D1F8",
"N+	c #23DDFF",
"O+	c #14D3FC",
"P+	c #5AE1FE",
"Q+	c #3B758B",
"R+	c #084258",
"S+	c #286584",
"T+	c #5DCDF7",
"U+	c #1AC8F4",
"V+	c #13DBFF",
"W+	c #0AD2F0",
"X+	c #00B5DC",
"Y+	c #03BCDD",
"Z+	c #04C8D4",
"`+	c #09C1CD",
" @	c #00AFC4",
".@	c #0BBACF",
"+@	c #08C3D4",
"@@	c #0996A7",
"#@	c #25B7FB",
"$@	c #15D1F9",
"%@	c #12D8FC",
"&@	c #09D8F7",
"*@	c #05D2F7",
"=@	c #17D6FF",
"-@	c #19D1FF",
";@	c #13CAFF",
">@	c #17CBFF",
",@	c #18C6F8",
"'@	c #55CDFF",
")@	c #77CAF1",
"!@	c #68E0FE",
"~@	c #23C7F7",
"{@	c #1CE1FE",
"]@	c #0BCEEB",
"^@	c #09C7E9",
"/@	c #06C3D4",
"(@	c #10CBD2",
"_@	c #10C4CA",
":@	c #08A9BC",
"<@	c #00A4BC",
"[@	c #06BEDA",
"}@	c #009BB2",
"|@	c #21BFF3",
"1@	c #19CCF3",
"2@	c #16CAF0",
"3@	c #12D1F4",
"4@	c #10CFF2",
"5@	c #03CAF5",
"6@	c #1CDAF6",
"7@	c #0FBFEB",
"8@	c #07B2F1",
"9@	c #1CCBFE",
"0@	c #18B7F2",
"a@	c #21B6F5",
"b@	c #29C6F3",
"c@	c #20BCF0",
"d@	c #1DBDF9",
"e@	c #19C4EF",
"f@	c #1ECDEC",
"g@	c #08B6E2",
"h@	c #07BEDF",
"i@	c #0EC4DA",
"j@	c #05B1CB",
"k@	c #03ACC5",
"l@	c #02AEC2",
"m@	c #05B5CF",
"n@	c #06B6D0",
"o@	c #0092AC",
"p@	c #0D1F21",
"q@	c #071B1F",
"r@	c #001116",
"s@	c #042224",
"t@	c #051A1D",
"u@	c #072522",
"v@	c #040A10",
"w@	c #090C13",
"x@	c #091315",
"y@	c #061E17",
"z@	c #071C1D",
"A@	c #000912",
"B@	c #081E1C",
"C@	c #00141C",
"D@	c #020B1A",
"E@	c #041A15",
"F@	c #05251C",
"G@	c #011621",
"H@	c #00141A",
"I@	c #021C19",
"J@	c #00121A",
"K@	c #021A1A",
"L@	c #071D15",
"M@	c #041316",
"N@	c #091519",
"O@	c #080B12",
"P@	c #56544E",
"Q@	c #585550",
"R@	c #5A5852",
"S@	c #5C5954",
"T@	c #605C56",
"U@	c #615E59",
"V@	c #65605B",
"W@	c #67635D",
"X@	c #696561",
"Y@	c #6C6962",
"Z@	c #6E6A64",
"`@	c #706C66",
" #	c #726D68",
".#	c #75716B",
"+#	c #77736D",
"@#	c #79736F",
"##	c #7C7770",
"$#	c #7E7872",
"%#	c #7F7973",
"&#	c #817B77",
"*#	c #837D77",
"=#	c #847E7A",
"-#	c #86807A",
";#	c #88817C",
">#	c #89827D",
",#	c #8A837E",
"'#	c #2B292D",
")#	c #1C1C1C",
"!#	c #242424",
"~#	c #1D1D1D",
"{#	c #1B1B1B",
"]#	c #1E1E1E",
"^#	c #1A1A1A",
"/#	c #191919",
"(#	c #1F1F1F",
"_#	c #202020",
":#	c #161616",
"<#	c #171717",
"[#	c #181818",
". + @ # $ % & * = - ; > , ' ) ! ~ { ] ^ ^ / ( _ : < ",
"[ } | 1 2 3 4 5 6 7 8 9 0 a b c d e f g h i j k l m ",
"n o p q r s t u v w x y z A B C D E F G H I J K L M ",
"N O P Q R S T U V W X Y Z `  ...+.@.#.$.%.&.*.*.=.-.",
";.>.,.'.).!.~.{.].^./.(._.:.<.[.}.>.>.{.|.1.2.3.4.5.",
"6.H 7.8.9.0.a.b.c.d.e.f.g.h.i.j.k.l.m.n.o.p.q.r.s.t.",
"u.v.w.x.y.z.A.B.C.D.E.F.G.H.I.J.K.L.M.N.O.P.Q.R.S.T.",
"U.V.W.X.Y.Z.`. +.+++@+#+$+%+&+*+=+-+O.;+>+,+'+)+!+~+",
"{+]+^+/+(+_+:+<+[+}+|+1+2+3+4+5+6+7+8+9+0+a+b+c+d+e+",
"f+g+h+i+j+k+l+m+n+o+p+q+r+s+t+u+v+w+x+y+z+A+B+C+D+E+",
"F+G+H+I+J+K+L+M+N+O+P+Q+R+S+T+U+V+W+X+Y+Z+`+ @.@+@@@",
"#@$@%@&@*@6+=@-@;@>@,@'@)@!@~@D.{@]@^@/@(@_@:@<@[@}@",
"|@1@2@3@4@5@6@7@8@9@0@a@b@c@d@e@f@g@h@i@j@k@l@m@n@o@",
"p@q@r@s@t@u@v@w@x@y@z@A@B@C@D@E@F@G@H@I@J@K@L@M@N@O@",
"P@Q@R@S@T@U@V@W@X@Y@Z@`@ #.#+#@###$#%#&#*#=#-#;#>#,#",
"'#'#'#'#'#'#'#'#'#'#'#'#'#'#'#'#'#'#'#'#'#'#'#'#'#'#",
")#)#)#)#)#)#)#)#)#)#)#)#)#)#)#)#)#)#)#)#)#)#)#)#)#!#",
"~#~#~#~#~#~#~#~#~#~#~#~#~#~#~#~#~#~#~#~#~#~#~#~#~#~#",
"{#{#{#{#{#{#{#{#{#{#{#{#{#{#{#)#~#~#]#]#]#]#]#]#~#~#",
"{#{#^#^#^#^#/#/#/#^#^#{#)#{#{#)#~#]#(#_#(#(#(#(#(#]#",
":#:#:#:#:#<#<#<#<#[#/#^#{#~#~#~#~#~#~#~#~#~#~#~#~#~#",
"[#[#/#/#/#~#~#~#]#_#_#_#_#_#_#_#_#_#_#_#_#_#_#_#_#_#",
"(#(#(#(#_#(#(#(#(#(#(#(#(#(#(#(#(#(#(#(#(#(#(#(#(#(#",
"[#[#[#[#[#[#[#[#[#[#[#[#[#[#[#[#[#[#[#[#[#[#[#[#[#[#"};
