/* XPM */
static char * top_right_active_xpm[] = {
"6 42 60 1",
" 	c None",
".	c #848484",
"+	c #6A6967",
"@	c #404040",
"#	c #535353",
"$	c #686868",
"%	c #424242",
"&	c #525252",
"*	c #636363",
"=	c #363636",
"-	c #505050",
";	c #4C4C4C",
">	c #545454",
",	c #3C3C3C",
"'	c #3A3A3A",
")	c #3F3F3F",
"!	c #393939",
"~	c #373737",
"{	c #333333",
"]	c #313131",
"^	c #353535",
"/	c #2F2F2F",
"(	c #343434",
"_	c #2D2D2D",
":	c #323232",
"<	c #2A2A2A",
"[	c #272727",
"}	c #2C2C2C",
"|	c #262626",
"1	c #232323",
"2	c #252525",
"3	c #212121",
"4	c #1F1F1F",
"5	c #1D1D1D",
"6	c #202020",
"7	c #1E1E1E",
"8	c #1C1C1C",
"9	c #181818",
"0	c #1B1B1B",
"a	c #101010",
"b	c #161616",
"c	c #040404",
"d	c #111111",
"e	c #191919",
"f	c #0F0F0F",
"g	c #030303",
"h	c #171717",
"i	c #080808",
"j	c #121212",
"k	c #747474",
"l	c #8A8A8A",
"m	c #868686",
"n	c #0B0B0B",
"o	c #787878",
"p	c #9E9E9E",
"q	c #D3D3D3",
"r	c #646464",
"s	c #060606",
"t	c #B9B9B9",
"u	c #555555",
"..+@  ",
"###$% ",
"&&&&*=",
"-----&",
";;;;;>",
";;;;;#",
",,,,,%",
"''''')",
"!!!!!,",
"~~~~~'",
"{{{{{~",
"]]]]]^",
"/////(",
"_____:",
"<<<<</",
"[[[[[}",
"|||||[",
"111112",
"333331",
"444443",
"555556",
"666667",
"444448",
"999990",
" ab51c",
" ab51c",
" ab51c",
" ab51c",
" ab51c",
" ab51c",
" ab51c",
" ab51c",
" ab51c",
" ab51c",
" ab51c",
" de9fg",
" abhbc",
" ij1kc",
" ddlmc",
" nop>c",
" 5qr&c",
" struc"};
