/* XPM */
static char * top_left_inactive_xpm[] = {
"6 42 41 1",
" 	c None",
".	c #313131",
"+	c #434241",
"@	c #4D4D4D",
"#	c #323232",
"$	c #424242",
"%	c #393939",
"&	c #2D2D2D",
"*	c #404040",
"=	c #383838",
"-	c #3A3A3A",
";	c #363636",
">	c #303030",
",	c #2F2F2F",
"'	c #2E2E2E",
")	c #2C2C2C",
"!	c #2B2B2B",
"~	c #2A2A2A",
"{	c #292929",
"]	c #282828",
"^	c #272727",
"/	c #262626",
"(	c #252525",
"_	c #242424",
":	c #232323",
"<	c #222222",
"[	c #212121",
"}	c #181818",
"|	c #202020",
"1	c #1D1D1D",
"2	c #1E1E1E",
"3	c #474747",
"4	c #1A1A1A",
"5	c #4E4E4E",
"6	c #505050",
"7	c #585858",
"8	c #484848",
"9	c #1B1B1B",
"0	c #6E6E6E",
"a	c #646464",
"b	c #191919",
"  .+@@",
" #$%%%",
"&*%%%%",
"%=====",
"-;;;;;",
"%;;;;;",
"#>>>>>",
".,,,,,",
">'''''",
",&&&&&",
"&)))))",
"&!!!!!",
")~~~~~",
"!{{{{{",
"~]]]]]",
"{^^^^^",
"^/////",
"/(((((",
"(_____",
"______",
"_:::::",
":_____",
"<_____",
"<[[[[[",
"}(:|1 ",
"}(:|1 ",
"}(:|1 ",
"}(:|1 ",
"}(:|1 ",
"}(:|1 ",
"}(:|1 ",
"}(:|1 ",
"}(:|1 ",
"}(:|1 ",
"}(:|1 ",
"}1[[2 ",
"}|||1 ",
"}3(24 ",
"}5622 ",
"}-789 ",
"}%*0: ",
"}-*ab "};
