/* XPM */
static char * top_left_active_xpm[] = {
"6 42 60 1",
" 	c None",
".	c #404040",
"+	c #6A6967",
"@	c #848484",
"#	c #424242",
"$	c #686868",
"%	c #535353",
"&	c #363636",
"*	c #636363",
"=	c #525252",
"-	c #505050",
";	c #545454",
">	c #4C4C4C",
",	c #3C3C3C",
"'	c #3F3F3F",
")	c #3A3A3A",
"!	c #393939",
"~	c #373737",
"{	c #333333",
"]	c #353535",
"^	c #313131",
"/	c #343434",
"(	c #2F2F2F",
"_	c #323232",
":	c #2D2D2D",
"<	c #2A2A2A",
"[	c #2C2C2C",
"}	c #272727",
"|	c #262626",
"1	c #252525",
"2	c #232323",
"3	c #212121",
"4	c #1F1F1F",
"5	c #202020",
"6	c #1D1D1D",
"7	c #1E1E1E",
"8	c #1C1C1C",
"9	c #1B1B1B",
"0	c #181818",
"a	c #040404",
"b	c #161616",
"c	c #101010",
"d	c #030303",
"e	c #0F0F0F",
"f	c #191919",
"g	c #111111",
"h	c #171717",
"i	c #747474",
"j	c #121212",
"k	c #080808",
"l	c #868686",
"m	c #8A8A8A",
"n	c #9E9E9E",
"o	c #787878",
"p	c #0B0B0B",
"q	c #646464",
"r	c #D3D3D3",
"s	c #555555",
"t	c #B9B9B9",
"u	c #060606",
"  .+@@",
" #$%%%",
"&*====",
"=-----",
";>>>>>",
"%>>>>>",
"#,,,,,",
"')))))",
",!!!!!",
")~~~~~",
"~{{{{{",
"]^^^^^",
"/(((((",
"_:::::",
"(<<<<<",
"[}}}}}",
"}|||||",
"122222",
"233333",
"344444",
"566666",
"755555",
"844444",
"900000",
"a26bc ",
"a26bc ",
"a26bc ",
"a26bc ",
"a26bc ",
"a26bc ",
"a26bc ",
"a26bc ",
"a26bc ",
"a26bc ",
"a26bc ",
"de0fg ",
"abhbc ",
"ai2jk ",
"almgg ",
"a;nop ",
"a=qr6 ",
"asqtu "};
