/* XPM */
static char * bottom_right_active_xpm[] = {
"5 6 21 1",
" 	c #1C1C1C",
".	c #212121",
"+	c #242424",
"@	c #272727",
"#	c #050505",
"$	c #2E2E2E",
"%	c #252525",
"&	c #262626",
"*	c #060606",
"=	c #292929",
"-	c #2B2B2B",
";	c #2D2D2D",
">	c #070707",
",	c #0A0A0A",
"'	c #464646",
")	c #3E3E3E",
"!	c #1B1B1B",
"~	c #0F0F0F",
"{	c #000000",
"]	c #020202",
"^	c #131313",
" .+@#",
"$%+&*",
"@=-;>",
"====,",
"')-!~",
"{]#>^"};
