/* XPM */
static char * bottom_right_active_xpm[] = {
"10 23 44 1",
" 	c None",
".	c #1D1D1D",
"+	c #D3D3D3",
"@	c #646464",
"#	c #525252",
"$	c #040404",
"%	c #0B0B0B",
"&	c #787878",
"*	c #9E9E9E",
"=	c #545454",
"-	c #111111",
";	c #8A8A8A",
">	c #868686",
",	c #080808",
"'	c #121212",
")	c #232323",
"!	c #747474",
"~	c #101010",
"{	c #161616",
"]	c #171717",
"^	c #0F0F0F",
"/	c #030303",
"(	c #161614",
"_	c #1C1C1C",
":	c #212121",
"<	c #242424",
"[	c #272727",
"}	c #050505",
"|	c #444444",
"1	c #2E2E2E",
"2	c #252525",
"3	c #262626",
"4	c #060606",
"5	c #292929",
"6	c #2B2B2B",
"7	c #2D2D2D",
"8	c #070707",
"9	c #282828",
"0	c #020202",
"a	c #464646",
"b	c #3E3E3E",
"c	c #1B1B1B",
"d	c #2F2F2F",
"e	c #000000",
"     .+@#$",
"     %&*=$",
"     --;>$",
"     ,')!$",
"     ~{]{$",
"     -{.^/",
"     ~{.)$",
"     ~{.)$",
"     ~{.)$",
"     ~{.)$",
"     ~{.)$",
"     ~{.)$",
"     ~{.)$",
"     ~{.)$",
"     ~{.)$",
"     ~{.)$",
"     ~{.)$",
"(((((_:<[}",
"|||||12<34",
"33333[5678",
"9999955550",
"|||||ab6cd",
"00000e00d "};
