/* XPM */
static char * bottom_active_xpm[] = {
"5 6 5 1",
" 	c #161614",
".	c #444444",
"+	c #262626",
"@	c #282828",
"#	c #020202",
"     ",
".....",
"+++++",
"@@@@@",
".....",
"#####"};
