/* XPM */
static char * bottom_left_active_xpm[] = {
"10 23 44 1",
" 	c None",
".	c #040404",
"+	c #525252",
"@	c #646464",
"#	c #D3D3D3",
"$	c #1D1D1D",
"%	c #545454",
"&	c #9E9E9E",
"*	c #787878",
"=	c #0B0B0B",
"-	c #868686",
";	c #8A8A8A",
">	c #111111",
",	c #747474",
"'	c #232323",
")	c #121212",
"!	c #080808",
"~	c #161616",
"{	c #171717",
"]	c #101010",
"^	c #030303",
"/	c #0F0F0F",
"(	c #050505",
"_	c #272727",
":	c #242424",
"<	c #212121",
"[	c #1C1C1C",
"}	c #161614",
"|	c #060606",
"1	c #262626",
"2	c #252525",
"3	c #2E2E2E",
"4	c #444444",
"5	c #070707",
"6	c #2D2D2D",
"7	c #2B2B2B",
"8	c #292929",
"9	c #020202",
"0	c #282828",
"a	c #2F2F2F",
"b	c #1B1B1B",
"c	c #3E3E3E",
"d	c #464646",
"e	c #000000",
".+@#$     ",
".%&*=     ",
".-;>>     ",
".,')!     ",
".~{~]     ",
"^/$~>     ",
".'$~]     ",
".'$~]     ",
".'$~]     ",
".'$~]     ",
".'$~]     ",
".'$~]     ",
".'$~]     ",
".'$~]     ",
".'$~]     ",
".'$~]     ",
".'$~]     ",
"(_:<[}}}}}",
"|1:2344444",
"5678_11111",
"9888800000",
"ab7cd44444",
" a99e99999"};
