/* XPM */
static char * close_inactive_xpm[] = {
"33 24 439 2",
"  	c None",
". 	c #9FA0A3",
"+ 	c #6895A4",
"@ 	c #61839D",
"# 	c #60859A",
"$ 	c #60889C",
"% 	c #5F879B",
"& 	c #5C859C",
"* 	c #59849B",
"= 	c #58859C",
"- 	c #54829A",
"; 	c #54859C",
"> 	c #52859A",
", 	c #52869A",
"' 	c #518397",
") 	c #528598",
"! 	c #518497",
"~ 	c #4E8194",
"{ 	c #4D8091",
"] 	c #4B7187",
"^ 	c #496F85",
"/ 	c #487186",
"( 	c #4B7487",
"_ 	c #4C7486",
": 	c #4B7485",
"< 	c #4A7784",
"[ 	c #4B7985",
"} 	c #477D8D",
"| 	c #50808C",
"1 	c #112B33",
"2 	c #2E2228",
"3 	c #A19D9B",
"4 	c #8A848E",
"5 	c #4A778C",
"6 	c #436387",
"7 	c #446688",
"8 	c #3B6A8B",
"9 	c #38688A",
"0 	c #366688",
"a 	c #326284",
"b 	c #2E5F82",
"c 	c #295D81",
"d 	c #265A7E",
"e 	c #245A7C",
"f 	c #216081",
"g 	c #1F5E7F",
"h 	c #1D5C7D",
"i 	c #1B5A7B",
"j 	c #195A79",
"k 	c #165776",
"l 	c #125172",
"m 	c #104F70",
"n 	c #10526E",
"o 	c #0E4F6A",
"p 	c #0C4A64",
"q 	c #0B4963",
"r 	c #0C4960",
"s 	c #0A4B5E",
"t 	c #054659",
"u 	c #024758",
"v 	c #074A59",
"w 	c #0C4C54",
"x 	c #04212A",
"y 	c #373939",
"z 	c #9A9B97",
"A 	c #6A788E",
"B 	c #127F86",
"C 	c #086174",
"D 	c #096975",
"E 	c #0A6E7A",
"F 	c #0A6F78",
"G 	c #0A717A",
"H 	c #0B727B",
"I 	c #05616F",
"J 	c #055D6D",
"K 	c #07616F",
"L 	c #086370",
"M 	c #085E6E",
"N 	c #0A616E",
"O 	c #09606D",
"P 	c #0A5A66",
"Q 	c #07565F",
"R 	c #055059",
"S 	c #075059",
"T 	c #0B545B",
"U 	c #0D585D",
"V 	c #0B565D",
"W 	c #05505D",
"X 	c #094F55",
"Y 	c #041D1E",
"Z 	c #4A4A4A",
"` 	c #929391",
" .	c #546D8E",
"..	c #0C7584",
"+.	c #0A7888",
"@.	c #046C7C",
"#.	c #076A7F",
"$.	c #07687D",
"%.	c #076B7D",
"&.	c #066A7C",
"*.	c #076879",
"=.	c #076A79",
"-.	c #066978",
";.	c #056877",
">.	c #086876",
",.	c #076975",
"'.	c #056371",
").	c #066270",
"!.	c #055F6D",
"~.	c #07626D",
"{.	c #065D6A",
"].	c #055C69",
"^.	c #0A5C68",
"/.	c #075763",
"(.	c #07505B",
"_.	c #054C57",
":.	c #064A54",
"<.	c #054B55",
"[.	c #064D58",
"}.	c #0A515E",
"|.	c #0F565B",
"1.	c #0A1718",
"2.	c #646462",
"3.	c #878B88",
"4.	c #495987",
"5.	c #12788E",
"6.	c #0C778E",
"7.	c #0F788B",
"8.	c #0B778B",
"9.	c #0A768A",
"0.	c #0A7386",
"a.	c #0A7686",
"b.	c #0B7585",
"c.	c #0C7382",
"d.	c #0C7682",
"e.	c #0B737F",
"f.	c #0B6C75",
"g.	c #09646F",
"h.	c #08666E",
"i.	c #07606B",
"j.	c #096169",
"k.	c #095D67",
"l.	c #085C66",
"m.	c #075B65",
"n.	c #075963",
"o.	c #07525D",
"p.	c #074D57",
"q.	c #054953",
"r.	c #024652",
"s.	c #044854",
"t.	c #074C59",
"u.	c #064A56",
"v.	c #0F5357",
"w.	c #0A1014",
"x.	c #7F7B79",
"y.	c #6A6C68",
"z.	c #2D4A8D",
"A.	c #0C598A",
"B.	c #09638D",
"C.	c #0A678E",
"D.	c #0C698C",
"E.	c #08678A",
"F.	c #076A8B",
"G.	c #046C8A",
"H.	c #026986",
"I.	c #046A84",
"J.	c #056A83",
"K.	c #066880",
"L.	c #056577",
"M.	c #045F72",
"N.	c #045B6E",
"O.	c #05596B",
"P.	c #065968",
"Q.	c #075965",
"R.	c #075D67",
"S.	c #075161",
"T.	c #004658",
"U.	c #004556",
"V.	c #024A5A",
"W.	c #044B56",
"X.	c #054753",
"Y.	c #005160",
"Z.	c #01383F",
"`.	c #15161B",
" +	c #7F7A77",
".+	c #4C4C4C",
"++	c #13478D",
"@+	c #00638C",
"#+	c #006B8A",
"$+	c #006E8A",
"%+	c #00808C",
"&+	c #00858A",
"*+	c #008A8C",
"=+	c #008E8C",
"-+	c #008C8A",
";+	c #008A88",
">+	c #008886",
",+	c #008482",
"'+	c #007A79",
")+	c #007675",
"!+	c #007271",
"~+	c #006A69",
"{+	c #006463",
"]+	c #005C5B",
"^+	c #005857",
"/+	c #005655",
"(+	c #004847",
"_+	c #004E4D",
":+	c #004241",
"<+	c #003C3B",
"[+	c #00403F",
"}+	c #003E3D",
"|+	c #003837",
"1+	c #003A39",
"2+	c #011013",
"3+	c #45514F",
"4+	c #6B6C64",
"5+	c #3C3C3C",
"6+	c #0E3D8C",
"7+	c #005B8A",
"8+	c #00618A",
"9+	c #006286",
"0+	c #00758E",
"a+	c #007C8E",
"b+	c #007F8E",
"c+	c #00868E",
"d+	c #00898E",
"e+	c #00807E",
"f+	c #007C7B",
"g+	c #005E5D",
"h+	c #00504F",
"i+	c #004A49",
"j+	c #002424",
"k+	c #00090E",
"l+	c #6B6768",
"m+	c #3A3A3A",
"n+	c #0C3E8A",
"o+	c #00598C",
"p+	c #005A88",
"q+	c #00618E",
"r+	c #00668C",
"s+	c #00708C",
"t+	c #007A8C",
"u+	c #00828A",
"v+	c #00888A",
"w+	c #008684",
"x+	c #007E7D",
"y+	c #008280",
"z+	c #006261",
"A+	c #004C4B",
"B+	c #003635",
"C+	c #010809",
"D+	c #39373B",
"E+	c #5B6658",
"F+	c #393939",
"G+	c #0A468A",
"H+	c #005A8E",
"I+	c #00578E",
"J+	c #00568C",
"K+	c #005E8E",
"L+	c #006B8E",
"M+	c #007877",
"N+	c #006C6B",
"O+	c #005453",
"P+	c #002626",
"Q+	c #000B0C",
"R+	c #645E60",
"S+	c #373737",
"T+	c #033D85",
"U+	c #00518A",
"V+	c #004986",
"W+	c #004F86",
"X+	c #005388",
"Y+	c #005C8C",
"Z+	c #00688E",
"`+	c #00738C",
" @	c #007F8A",
".@	c #008284",
"+@	c #006665",
"@@	c #005A59",
"#@	c #004443",
"$@	c #003231",
"%@	c #00080A",
"&@	c #2D2A36",
"*@	c #524D4A",
"=@	c #333333",
"-@	c #014087",
";@	c #00528C",
">@	c #004E84",
",@	c #005286",
"'@	c #00588A",
")@	c #00648E",
"!@	c #00728E",
"~@	c #00848C",
"{@	c #008688",
"]@	c #007473",
"^@	c #00706F",
"/@	c #005251",
"(@	c #000606",
"_@	c #202428",
":@	c #594F53",
"<@	c #313131",
"[@	c #004280",
"}@	c #005586",
"|@	c #004982",
"1@	c #006E6D",
"2@	c #00605F",
"3@	c #010303",
"4@	c #1C1C1C",
"5@	c #51534D",
"6@	c #2F2F2F",
"7@	c #02151A",
"8@	c #00394C",
"9@	c #005382",
"0@	c #005688",
"a@	c #005E8A",
"b@	c #006D8C",
"c@	c #007984",
"d@	c #008082",
"e@	c #000304",
"f@	c #43443E",
"g@	c #2D2D2D",
"h@	c #463840",
"i@	c #001012",
"j@	c #012C39",
"k@	c #005176",
"l@	c #004F78",
"m@	c #00527C",
"n@	c #005982",
"o@	c #005D84",
"p@	c #00688A",
"q@	c #007688",
"r@	c #010607",
"s@	c #1B2D26",
"t@	c #434746",
"u@	c #2A2A2A",
"v@	c #5F5F55",
"w@	c #514943",
"x@	c #04091A",
"y@	c #04151A",
"z@	c #004C68",
"A@	c #005976",
"B@	c #006282",
"C@	c #006084",
"D@	c #005A84",
"E@	c #00758A",
"F@	c #00727C",
"G@	c #006E78",
"H@	c #001616",
"I@	c #1A1C20",
"J@	c #474346",
"K@	c #272727",
"L@	c #2E2E2E",
"M@	c #3B3B3B",
"N@	c #454545",
"O@	c #2B2D21",
"P@	c #02090C",
"Q@	c #011215",
"R@	c #004650",
"S@	c #005A78",
"T@	c #005F82",
"U@	c #006586",
"V@	c #00778C",
"W@	c #007482",
"X@	c #00747E",
"Y@	c #007178",
"Z@	c #006867",
"`@	c #004645",
" #	c #001C1C",
".#	c #020A0A",
"+#	c #0E1718",
"@#	c #302E2F",
"##	c #3F3939",
"$#	c #262626",
"%#	c #1D1D1D",
"&#	c #202020",
"*#	c #242424",
"=#	c #2B3A3B",
"-#	c #373B3A",
";#	c #2A2B27",
">#	c #060C0A",
",#	c #000506",
"'#	c #000202",
")#	c #002E30",
"!#	c #004C5A",
"~#	c #00616C",
"{#	c #00707A",
"]#	c #00646A",
"^#	c #000E0E",
"/#	c #000000",
"(#	c #0E1D20",
"_#	c #2A3638",
":#	c #373C3F",
"<#	c #343233",
"[#	c #232323",
"}#	c #1E1E1E",
"|#	c #1F1F1F",
"1#	c #1E181A",
"2#	c #251B1C",
"3#	c #2C2220",
"4#	c #36372F",
"5#	c #373C34",
"6#	c #222521",
"7#	c #090D0B",
"8#	c #040A09",
"9#	c #050604",
"0#	c #020406",
"a#	c #040708",
"b#	c #0D0E0F",
"c#	c #3D3C37",
"d#	c #2F2F33",
"e#	c #212121",
"f#	c #1A1A1A",
"g#	c #191919",
"h#	c #182220",
"i#	c #17161C",
"j#	c #1E1921",
"k#	c #1B1A20",
"l#	c #191C21",
"m#	c #23282B",
"n#	c #2E3032",
"o#	c #2F3233",
"p#	c #313036",
"q#	c #352E36",
"r#	c #332935",
"s#	c #2D2830",
"t#	c #26282C",
"u#	c #1B1D1B",
"v#	c #191B19",
"w#	c #191B17",
"x#	c #14191C",
"y#	c #19141A",
"z#	c #16141A",
"A#	c #191B1F",
"B#	c #20211B",
"C#	c #161817",
"D#	c #1F0D13",
"E#	c #1B2521",
"F#	c #181818",
". + @ # $ % & & * = - ; > , ' ) ) ! ~ { ] ^ / ( _ : < [ } | 1 2 3 ",
"4 5 6 7 8 9 0 a b c d e f g h i j k l m n o p q r s t u v w x y z ",
"A B C D E F F F G H G G I J J K L M N O P Q R S T U U V W X Y Z ` ",
" ...+.@.#.$.%.&.*.=.-.;.>.,.'.).!.~.{.].^./.(._.:.<.[.(.}.|.1.2.3.",
"4.5.6.7.8.9.0.a.b.c.d.e.f.f.g.h.i.j.k.l.m.n.o.p.q.r.s.t.u.v.w.x.y.",
"z.A.B.C.D.E.F.G.H.I.J.K.*.L.M.N.O.P.Q.R.S.T.U.V.W.X.X.W.Y.Z.`. +.+",
"++@+#+$+%+&+*+=+-+;+>+,+'+)+!+~+{+]+^+/+(+_+:+<+[+}+|+}+1+2+3+4+5+",
"6+7+8+9+0+a+b+c+d+=+-+>+e+e+f+)+~+g+/+h+(+i+:+[+}+1+1+|+j+k+l+m+m+",
"n+o+o+p+q+r+s+t+u+v+>+w+x+e+y+x+!+z+/+A+_+i+_+(+[+}+B+}+C+D+E+F+F+",
"G+H+I+J+K+q+L+0+%+*+;+;+x+,+w+y+M+N+g+/+^+O+/+_+[+:+[+P+Q+R+S+S+S+",
"T+J+U+V+W+X+Y+Z+`+ @v+>+y+.@.@x+)+N++@g+@@O+A+(+[+#@$@%@&@*@=@=@=@",
"-@I+;@V+>@,@'@)@!@a+~@v+>+{@,+f+]@^@~++@@@/@i+}+#@$@(@_@:@<@<@<@<@",
"[@}@W+|@W+,@p+@+s+t+~@v+,+,+f+]@1@~++@2@/+/@#@(+<+3@4@5@6@6@6@6@6@",
"7@8@9@0@'@}@}@a@b@0+t+c@d@d@'+^@~++@z+z+^+/+(+<+e@(@f@g@g@g@g@g@g@",
"h@i@j@k@l@m@n@o@9+p@s+q@c@d@f+!++@{++@2@2@g+}+r@s@t@u@u@u@u@u@u@u@",
"v@w@x@y@z@A@B@C@n@D@p@E@F@G@!+]@]@~+z++@]+H@e@I@J@K@K@K@K@K@K@K@K@",
"L@M@N@O@P@Q@R@S@T@U@#+V@W@X@Y@^@N+Z@`@ #.#+#@###$#$#$#$#$#$#$#$#$#",
"%#&#*#=#-#;#>#,#'#)#!#~#{#]#_+$@^#/#/#(#_#:#<#[#[#[#[#[#[#[#[#[#[#",
"%#}#|#1#2#3#4#5#6#7#8#9#3@3@0#a#b#u@c#d#e#e#e#e#e#e#e#e#e#e#e#e#e#",
"4@f#g#h#i#j#k#l#m#n#@#o#p#q#r#r#s#t#|#|#|#|#|#|#|#|#|#|#|#|#|#|#|#",
"%#%#u#v#w#x#x#y#z#A#%#%#%#%#%#%#%#%#%#%#%#%#%#%#%#%#%#%#%#%#%#%#%#",
"&#|#}#x#x#x#x#x#x#B#&#&#&#&#&#&#&#&#&#&#&#&#&#&#&#&#&#&#&#&#&#&#&#",
"|#|#|#|#x#C#x#x#x#x#D#E#|#|#|#|#|#|#|#|#|#|#|#|#|#|#|#|#|#|#|#|#|#",
"F#F#F#F#F#F#F#F#F#F#F#F#F#F#F#F#F#F#F#F#F#F#F#F#F#F#F#F#F#F#F#F#F#"};
