/* XPM */
static char * close_active_xpm[] = {
"33 24 579 2",
"  	c None",
". 	c #F9FAFB",
"+ 	c #B3E0FF",
"@ 	c #B1DFFF",
"# 	c #B2DFFC",
"$ 	c #ADE1FF",
"% 	c #A8DDFE",
"& 	c #A6D8FE",
"* 	c #ABD6FF",
"= 	c #A1D7FD",
"- 	c #A2D8FE",
"; 	c #96D2F8",
"> 	c #9FDFFD",
", 	c #9BE1FB",
"' 	c #9AE0FA",
") 	c #95D0EF",
"! 	c #96D5F2",
"~ 	c #96D2EE",
"{ 	c #96CFEA",
"] 	c #8EC5E2",
"^ 	c #8DC0DB",
"/ 	c #8CBFDA",
"( 	c #8DC0D7",
"_ 	c #8BBAD3",
": 	c #8CBBD4",
"< 	c #8FC2D7",
"[ 	c #8BBFD5",
"} 	c #86BDD2",
"| 	c #8ECEDC",
"1 	c #8AC8E2",
"2 	c #87B8D7",
"3 	c #41626F",
"4 	c #3C2C34",
"5 	c #A19D9B",
"6 	c #FFF1FE",
"7 	c #A8D2FE",
"8 	c #A8CDFA",
"9 	c #A3CFFD",
"0 	c #98CDFE",
"a 	c #93C8FF",
"b 	c #8DC5FF",
"c 	c #87BCF7",
"d 	c #84BAF6",
"e 	c #83C9FF",
"f 	c #7BC2F9",
"g 	c #70C6FC",
"h 	c #70CAFE",
"i 	c #63B4ED",
"j 	c #60C0F8",
"k 	c #5FBFF1",
"l 	c #61C4E9",
"m 	c #5BB5DF",
"n 	c #48ACE0",
"o 	c #57AAC9",
"p 	c #55A8C7",
"q 	c #53A6C1",
"r 	c #4E9EBC",
"s 	c #4E9DBA",
"t 	c #4C9FBA",
"u 	c #489BB6",
"v 	c #4499B2",
"w 	c #4DB7B6",
"x 	c #43ACB9",
"y 	c #4CAEBA",
"z 	c #477D81",
"A 	c #3F4140",
"B 	c #9A9B97",
"C 	c #C1D8FF",
"D 	c #56DEFC",
"E 	c #52DDFA",
"F 	c #49CFFB",
"G 	c #4CCEF8",
"H 	c #55CFFD",
"I 	c #55D5FF",
"J 	c #56D0FE",
"K 	c #57DDFF",
"L 	c #4AD5F8",
"M 	c #53E0F5",
"N 	c #53DAF7",
"O 	c #46DAF0",
"P 	c #4ED7EC",
"Q 	c #49D8E1",
"R 	c #56D6DE",
"S 	c #49C9D1",
"T 	c #41ACBF",
"U 	c #43A2B3",
"V 	c #41A0B1",
"W 	c #3F9AAB",
"X 	c #3E95A8",
"Y 	c #429AAA",
"Z 	c #449CAC",
"` 	c #449EAC",
" .	c #41A0AB",
"..	c #4CA6AE",
"+.	c #43A0B1",
"@.	c #4BADB5",
"#.	c #2F565B",
"$.	c #4A4A4A",
"%.	c #929391",
"&.	c #B3C5FF",
"*.	c #4EE0FA",
"=.	c #4BE3FF",
"-.	c #4AE2FE",
";.	c #55E9FF",
">.	c #56E4FE",
",.	c #66E0FE",
"'.	c #5EDAFE",
").	c #57D1FF",
"!.	c #50D1FC",
"~.	c #4FDCFF",
"{.	c #4AC2F4",
"].	c #4DE4FF",
"^.	c #48C9EA",
"/.	c #44D2EC",
"(.	c #4DD9E9",
"_.	c #4EB8C4",
":.	c #14546C",
"<.	c #43AEC1",
"[.	c #43A7B3",
"}.	c #41A3AF",
"|.	c #449FAA",
"1.	c #48A4AC",
"2.	c #47A3AB",
"3.	c #47A3A9",
"4.	c #4295A4",
"5.	c #429DAE",
"6.	c #47ABAF",
"7.	c #1E3B3E",
"8.	c #646462",
"9.	c #878B88",
"0.	c #9CC0FC",
"a.	c #51E3F5",
"b.	c #42C6E2",
"c.	c #46CDEA",
"d.	c #53E8FF",
"e.	c #57E9FF",
"f.	c #56D8FE",
"g.	c #52D2FC",
"h.	c #57D2FB",
"i.	c #3090B8",
"j.	c #5CDBEA",
"k.	c #46D4FC",
"l.	c #4FE6FD",
"m.	c #51E8FF",
"n.	c #48CFD8",
"o.	c #1D4951",
"p.	c #3C6372",
"q.	c #42BFCA",
"r.	c #48A8B4",
"s.	c #46A5B0",
"t.	c #45A0AB",
"u.	c #46A0A8",
"v.	c #479BA5",
"w.	c #499DA5",
"x.	c #489EA4",
"y.	c #4AA1A4",
"z.	c #4391A5",
"A.	c #4194A9",
"B.	c #489BA0",
"C.	c #111D23",
"D.	c #7F7B79",
"E.	c #6A6C68",
"F.	c #7897F0",
"G.	c #48D1EE",
"H.	c #3EBEE8",
"I.	c #3CBEEE",
"J.	c #3BC4F1",
"K.	c #3ECDFC",
"L.	c #3AB2F0",
"M.	c #4BC6FF",
"N.	c #53D1FB",
"O.	c #387798",
"P.	c #1D4D5B",
"Q.	c #52C7E0",
"R.	c #4DDFFF",
"S.	c #41D9FF",
"T.	c #47BED7",
"U.	c #13425B",
"V.	c #3C667C",
"W.	c #74BCD4",
"X.	c #41B1C5",
"Y.	c #41A9B5",
"Z.	c #43A2AD",
"`.	c #48A0A8",
" +	c #3D94A7",
".+	c #3B96A7",
"++	c #3C727E",
"@+	c #17181D",
"#+	c #7F7A77",
"$+	c #4C4C4C",
"%+	c #4A96EC",
"&+	c #0DC0D5",
"*+	c #00BEDA",
"=+	c #08CDE4",
"-+	c #0AD2E4",
";+	c #0CC8E4",
">+	c #0EC7EE",
",+	c #0CD3FE",
"'+	c #17DBFF",
")+	c #5AE5FE",
"!+	c #2E7A9A",
"~+	c #0A5A68",
"{+	c #0A92AA",
"]+	c #0B94B1",
"^+	c #055063",
"/+	c #287682",
"(+	c #4EC8DE",
"_+	c #0AABBE",
":+	c #0EA8AE",
"<+	c #028AA2",
"[+	c #00849C",
"}+	c #007F96",
"|+	c #007C92",
"1+	c #00778C",
"2+	c #007388",
"3+	c #007688",
"4+	c #017687",
"5+	c #068890",
"6+	c #0B888D",
"7+	c #02323E",
"8+	c #45514F",
"9+	c #6B6C64",
"0+	c #3C3C3C",
"a+	c #3F94E3",
"b+	c #14CDD4",
"c+	c #09CFE1",
"d+	c #00B0D0",
"e+	c #0ACBE2",
"f+	c #12D1E2",
"g+	c #0BD7E9",
"h+	c #07CDF1",
"i+	c #0BDFFF",
"j+	c #19ECFF",
"k+	c #4DCEF3",
"l+	c #2C7E96",
"m+	c #0A586C",
"n+	c #115665",
"o+	c #308A92",
"p+	c #57D7E7",
"q+	c #06ABC4",
"r+	c #00ABC4",
"s+	c #05AAB9",
"t+	c #0594A5",
"u+	c #038E9F",
"v+	c #018999",
"w+	c #058695",
"x+	c #068392",
"y+	c #037D8B",
"z+	c #047F8A",
"A+	c #05808B",
"B+	c #077D8B",
"C+	c #06747E",
"D+	c #000D14",
"E+	c #6B6768",
"F+	c #3A3A3A",
"G+	c #3BA7E5",
"H+	c #09B5C9",
"I+	c #06C8DA",
"J+	c #04B5D0",
"K+	c #0DD6E3",
"L+	c #03B3D3",
"M+	c #01BBDD",
"N+	c #10DFF2",
"O+	c #0DD5F3",
"P+	c #0CD9FE",
"Q+	c #0FDCFB",
"R+	c #51DBF9",
"S+	c #6ADDEE",
"T+	c #72D2EA",
"U+	c #42BBDE",
"V+	c #05A9C7",
"W+	c #0BBBCB",
"X+	c #0AA2B8",
"Y+	c #0091B0",
"Z+	c #08A6B4",
"`+	c #048FA4",
" @	c #00829A",
".@	c #058B9F",
"+@	c #0C99A2",
"@@	c #05909D",
"#@	c #007A94",
"$@	c #057A8B",
"%@	c #098B93",
"&@	c #052B3B",
"*@	c #3B383C",
"=@	c #5B6658",
"-@	c #393939",
";@	c #2998DF",
">@	c #00B7D2",
",@	c #00C3E0",
"'@	c #09BAD5",
")@	c #09BED9",
"!@	c #00C1DE",
"~@	c #04BDDE",
"{@	c #0BC3D9",
"]@	c #0BCEEB",
"^@	c #08CEF2",
"/@	c #16D4F0",
"(@	c #02596C",
"_@	c #003F48",
":@	c #054549",
"<@	c #004E5A",
"[@	c #11A7B9",
"}@	c #01B9CF",
"|@	c #00A2BA",
"1@	c #07A6B9",
"2@	c #0EA6B0",
"3@	c #059FB1",
"4@	c #088AA2",
"5@	c #05899D",
"6@	c #0689A0",
"7@	c #0B969F",
"8@	c #0C9FA4",
"9@	c #00869E",
"0@	c #0F6971",
"a@	c #001112",
"b@	c #645E60",
"c@	c #373737",
"d@	c #249CD4",
"e@	c #13C9D9",
"f@	c #0DC7E3",
"g@	c #06CBE8",
"h@	c #08CBDC",
"i@	c #0BCADB",
"j@	c #08C0D6",
"k@	c #04B6D6",
"l@	c #07D5F3",
"m@	c #17D2E9",
"n@	c #005E76",
"o@	c #236C79",
"p@	c #8AE7F8",
"q@	c #84E8F6",
"r@	c #288088",
"s@	c #004952",
"t@	c #0D9AA3",
"u@	c #09AFB9",
"v@	c #0AA0AE",
"w@	c #099EAB",
"x@	c #0A95A2",
"y@	c #0792A3",
"z@	c #00809C",
"A@	c #00889C",
"B@	c #0F95A5",
"C@	c #0B8597",
"D@	c #0994A5",
"E@	c #00222A",
"F@	c #2E2B37",
"G@	c #524D4A",
"H@	c #333333",
"I@	c #17A0D9",
"J@	c #0ECFE6",
"K@	c #01C7EB",
"L@	c #06C5E8",
"M@	c #10D8E4",
"N@	c #13DAE1",
"O@	c #0BB3D1",
"P@	c #10CFE6",
"Q@	c #026480",
"R@	c #246274",
"S@	c #62DBF4",
"T@	c #12D0EC",
"U@	c #13C7ED",
"V@	c #54C2DE",
"W@	c #2C737C",
"X@	c #004450",
"Y@	c #0F9AA3",
"Z@	c #0596A7",
"`@	c #008A9E",
" #	c #088E9E",
".#	c #0A8EA2",
"+#	c #00829E",
"@#	c #038BA3",
"##	c #007B9A",
"$#	c #0A7F90",
"%#	c #003238",
"&#	c #25282D",
"*#	c #594F53",
"=#	c #313131",
"-#	c #1EB3DE",
";#	c #0FD9F1",
">#	c #00D0FC",
",#	c #05BFE7",
"'#	c #0EC7E8",
")#	c #0FC9EB",
"!#	c #17CEE9",
"~#	c #067490",
"{#	c #116581",
"]#	c #68E1FA",
"^#	c #1CD8FA",
"/#	c #04CFF4",
"(#	c #04C0E8",
"_#	c #0EC4DA",
":#	c #4FB7D1",
"<#	c #4AA2BC",
"[#	c #0993A3",
"}#	c #008DA2",
"|#	c #0794A5",
"1#	c #008BA4",
"2#	c #048CA0",
"3#	c #089EAC",
"4#	c #008DA6",
"5#	c #098F9F",
"6#	c #103842",
"7#	c #252525",
"8#	c #51534D",
"9#	c #2F2F2F",
"0#	c #053141",
"a#	c #1EA7AC",
"b#	c #18DCF4",
"c#	c #06D2FE",
"d#	c #0CCCFC",
"e#	c #0ECDF6",
"f#	c #0DCAF3",
"g#	c #11C5EB",
"h#	c #53D2F7",
"i#	c #64CFFC",
"j#	c #1DD7FF",
"k#	c #06C6F6",
"l#	c #0DC4EB",
"m#	c #0ECAE6",
"n#	c #09B6D5",
"o#	c #0BBED3",
"p#	c #1BB3C5",
"q#	c #0C97A8",
"r#	c #018EA3",
"s#	c #038D9D",
"t#	c #008A9A",
"u#	c #0598A9",
"v#	c #18A7AC",
"w#	c #012933",
"x#	c #000808",
"y#	c #43443E",
"z#	c #2D2D2D",
"A#	c #463840",
"B#	c #001A1E",
"C#	c #206C88",
"D#	c #1ABADC",
"E#	c #17CAF1",
"F#	c #1EC1F0",
"G#	c #19CBF1",
"H#	c #19C7F9",
"I#	c #1EBFF4",
"J#	c #25CEFF",
"K#	c #13BFF7",
"L#	c #13CAF7",
"M#	c #0DC1E7",
"N#	c #0ABCDC",
"O#	c #07B2D1",
"P#	c #0FCDD9",
"Q#	c #0EA5B2",
"R#	c #028598",
"S#	c #008396",
"T#	c #0C8994",
"U#	c #0D8897",
"V#	c #097B85",
"W#	c #051D27",
"X#	c #20342D",
"Y#	c #434746",
"Z#	c #2A2A2A",
"`#	c #5F5F55",
" $	c #514943",
".$	c #050A1D",
"+$	c #0E3A4C",
"@$	c #1A8FBA",
"#$	c #1AA6E0",
"$$	c #1AB2E4",
"%$	c #1ABFF6",
"&$	c #1BBDF9",
"*$	c #21BCF5",
"=$	c #20C1F6",
"-$	c #16D3FC",
";$	c #15D7F3",
">$	c #13C8E3",
",$	c #0EAED6",
"'$	c #05B7DD",
")$	c #0299B4",
"!$	c #0D99A5",
"~$	c #058B9B",
"{$	c #00758A",
"]$	c #004354",
"^$	c #000608",
"/$	c #1B1D21",
"($	c #474346",
"_$	c #272727",
":$	c #2E2E2E",
"<$	c #3B3B3B",
"[$	c #454545",
"}$	c #2B2D21",
"|$	c #030C11",
"1$	c #09344D",
"2$	c #2786AD",
"3$	c #23A3D9",
"4$	c #1EB0EC",
"5$	c #1EB4FA",
"6$	c #10B1F4",
"7$	c #1FD4EF",
"8$	c #18CBEC",
"9$	c #10CCE8",
"0$	c #09C5E1",
"a$	c #08BBD6",
"b$	c #0EB3CC",
"c$	c #0BA2B9",
"d$	c #153537",
"e$	c #071F21",
"f$	c #101B1C",
"g$	c #302E2F",
"h$	c #3F3939",
"i$	c #262626",
"j$	c #1D1D1D",
"k$	c #202020",
"l$	c #242424",
"m$	c #2B3A3B",
"n$	c #373B3A",
"o$	c #2C2C28",
"p$	c #09130F",
"q$	c #00141A",
"r$	c #0C3346",
"s$	c #1C6C86",
"t$	c #289BB8",
"u$	c #01A9D9",
"v$	c #0DB3DD",
"w$	c #0AA2C8",
"x$	c #0587A3",
"y$	c #0C6E80",
"z$	c #104652",
"A$	c #091D21",
"B$	c #020002",
"C$	c #122428",
"D$	c #2A3638",
"E$	c #373C3F",
"F$	c #343233",
"G$	c #232323",
"H$	c #1E1E1E",
"I$	c #1F1F1F",
"J$	c #1E181A",
"K$	c #251B1C",
"L$	c #2C2220",
"M$	c #36372F",
"N$	c #373C34",
"O$	c #262B25",
"P$	c #111715",
"Q$	c #0B1715",
"R$	c #0F110B",
"S$	c #020403",
"T$	c #020708",
"U$	c #060B0E",
"V$	c #0A0F12",
"W$	c #1A1C1E",
"X$	c #3D3C37",
"Y$	c #2F2F33",
"Z$	c #212121",
"`$	c #1C1C1C",
" %	c #1A1A1A",
".%	c #191919",
"+%	c #182220",
"@%	c #17161C",
"#%	c #1E1921",
"$%	c #1B1A20",
"%%	c #191C21",
"&%	c #23282B",
"*%	c #2E3032",
"=%	c #2F3233",
"-%	c #313036",
";%	c #352E36",
">%	c #332935",
",%	c #2D2830",
"'%	c #26282C",
")%	c #1B1D1B",
"!%	c #191B19",
"~%	c #191B17",
"{%	c #14191C",
"]%	c #19141A",
"^%	c #16141A",
"/%	c #191B1F",
"(%	c #20211B",
"_%	c #161817",
":%	c #1F0D13",
"<%	c #1B2521",
"[%	c #181818",
". + @ # $ % & * = - ; > , ' ) ! ~ { ] ^ / ( _ : < [ } | 1 2 3 4 5 ",
"6 7 8 9 0 a b c d e f g h i j k l m n o p q r s t u v w x y z A B ",
"C D E F G H I J J K L M N O P Q R S T U V W X Y Z `  ...+.@.#.$.%.",
"&.*.=.-.;.>.,.'.).!.~.{.].^./.(._.:.<.[.}. . .|.1.2.3.4.5.6.7.8.9.",
"0.a.b.c.d.e.f.g.h.i.j.k.l.m./.n.o.p.q.r.s.t.u.v.w.x.y.z.A.B.C.D.E.",
"F.G.H.I.J.K.L.M.N.O.P.Q.R.S.T.U.V.W.X.x Y.}.Z.t.u.u.`. +.+++@+#+$+",
"%+&+*+=+-+;+>+,+'+)+!+~+{+]+^+/+(+_+:+<+[+}+|+1+2+3+4+5+6+7+8+9+0+",
"a+b+c+d+e+f+g+h+i+j+k+l+m+n+o+p+q+r+s+t+u+v+w+x+y+z+A+B+C+D+E+F+F+",
"G+H+I+J+K+L+M+N+O+P+Q+R+S+T+U+V+W+X+Y+Z+`+ @.@+@@@#@$@%@&@*@=@-@-@",
";@>@,@'@)@!@~@{@]@^@/@(@_@:@<@[@}@|@1@2@3@4@5@6@7@8@9@0@a@b@c@c@c@",
"d@e@f@g@h@i@j@k@l@m@n@o@p@q@r@s@t@u@v@w@x@y@z@A@B@C@D@E@F@G@H@H@H@",
"I@J@K@L@M@N@O@]@P@Q@R@S@T@U@V@W@X@Y@Z@`@ #.#+#@###$#%#&#*#=#=#=#=#",
"-#;#>#,#'#)#K@!#~#{#]#^#/#(#_#:#<#[#}#|#1#2#3#4#5#6#7#8#9#9#9#9#9#",
"0#a#b#c#d#e#f#g#h#i#j#k#l#m#n#o#p#q#r#s#t#u#Z@v#w#x#y#z#z#z#z#z#z#",
"A#B#C#D#E#F#G#H#I#J#K#L#M#;+N#O#P#Q#R#S#T#U#V#W#X#Y#Z#Z#Z#Z#Z#Z#Z#",
"`# $.$+$@$#$$$%$&$*$=$-$;$>$,$'$d+)$!$~${$]$^$/$($_$_$_$_$_$_$_$_$",
":$<$[$}$|$1$2$3$4$5$6$7$8$9$0$a$b$c$}#d$e$f$g$h$i$i$i$i$i$i$i$i$i$",
"j$k$l$m$n$o$p$q$r$s$t$u$v$w$x$y$z$A$B$C$D$E$F$G$G$G$G$G$G$G$G$G$G$",
"j$H$I$J$K$L$M$N$O$P$Q$R$S$T$U$V$W$9#X$Y$Z$Z$Z$Z$Z$Z$Z$Z$Z$Z$Z$Z$Z$",
"`$ %.%+%@%#%$%%%&%*%g$=%-%;%>%>%,%'%I$I$I$I$I$I$I$I$I$I$I$I$I$I$I$",
"j$j$)%!%~%{%{%]%^%/%j$j$j$j$j$j$j$j$j$j$j$j$j$j$j$j$j$j$j$j$j$j$j$",
"k$I$H${%{%{%{%{%{%(%k$k$k$k$k$k$k$k$k$k$k$k$k$k$k$k$k$k$k$k$k$k$k$",
"I$I$I$I${%_%{%{%{%{%:%<%I$I$I$I$I$I$I$I$I$I$I$I$I$I$I$I$I$I$I$I$I$",
"[%[%[%[%[%[%[%[%[%[%[%[%[%[%[%[%[%[%[%[%[%[%[%[%[%[%[%[%[%[%[%[%[%"};
