/* XPM */
static char * hide_inactive_xpm[] = {
"29 24 351 2",
"  	c None",
". 	c #9A9E9C",
"+ 	c #101314",
"@ 	c #5D7E93",
"# 	c #507792",
"$ 	c #4E7992",
"% 	c #4B738F",
"& 	c #4D7591",
"* 	c #4C748E",
"= 	c #4C738E",
"- 	c #4B6F8B",
"; 	c #4F788F",
"> 	c #4D7891",
", 	c #4D7B93",
"' 	c #4E7C96",
") 	c #52839A",
"! 	c #54829A",
"~ 	c #54849C",
"{ 	c #5384A1",
"] 	c #5688A2",
"^ 	c #547FA0",
"/ 	c #5885A2",
"( 	c #5A84A2",
"_ 	c #5D83A3",
": 	c #6081A2",
"< 	c #6487A4",
"[ 	c #6484A4",
"} 	c #6886A2",
"| 	c #6785A1",
"1 	c #3E6984",
"2 	c #5B5F5E",
"3 	c #141718",
"4 	c #123448",
"5 	c #0F4C6F",
"6 	c #0F4D71",
"7 	c #0C4970",
"8 	c #0A4B70",
"9 	c #0C4D72",
"0 	c #0C4E70",
"a 	c #0E4F6E",
"b 	c #125270",
"c 	c #144B6E",
"d 	c #134B6F",
"e 	c #144F74",
"f 	c #19567D",
"g 	c #1D5B83",
"h 	c #1F5F87",
"i 	c #215E89",
"j 	c #245F8C",
"k 	c #2C5F8A",
"l 	c #2D5D89",
"m 	c #315889",
"n 	c #37598B",
"o 	c #3C588C",
"p 	c #405A8E",
"q 	c #455B8D",
"r 	c #475E8D",
"s 	c #58738E",
"t 	c #2F5A71",
"u 	c #575B5A",
"v 	c #383D3E",
"w 	c #082130",
"x 	c #0A4760",
"y 	c #0F4D67",
"z 	c #0C516A",
"A 	c #074E69",
"B 	c #07526B",
"C 	c #055369",
"D 	c #055265",
"E 	c #095467",
"F 	c #075467",
"G 	c #055569",
"H 	c #05586D",
"I 	c #075F75",
"J 	c #09647B",
"K 	c #0A647E",
"L 	c #0A617E",
"M 	c #0C6582",
"N 	c #0D6A89",
"O 	c #0F698B",
"P 	c #12648A",
"Q 	c #18648C",
"R 	c #1C618C",
"S 	c #1F628D",
"T 	c #22648E",
"U 	c #24658E",
"V 	c #1B5A8B",
"W 	c #004D6A",
"X 	c #505050",
"Y 	c #535557",
"Z 	c #081218",
"` 	c #0A3954",
" .	c #104662",
"..	c #104C68",
"+.	c #094967",
"@.	c #08516C",
"#.	c #055167",
"$.	c #065468",
"%.	c #075569",
"&.	c #05596B",
"*.	c #055C6F",
"=.	c #086478",
"-.	c #09677F",
";.	c #086782",
">.	c #096583",
",.	c #0C6886",
"'.	c #126486",
").	c #136287",
"!.	c #145E88",
"~.	c #185E8A",
"{.	c #1A5C8A",
"].	c #1B5E89",
"^.	c #1B608B",
"/.	c #125B8A",
"(.	c #025874",
"_.	c #4C4C4C",
":.	c #444444",
"<.	c #072E47",
"[.	c #114059",
"}.	c #124962",
"|.	c #0E4C66",
"1.	c #0D556D",
"2.	c #0C546C",
"3.	c #0B586B",
"4.	c #0C596A",
"5.	c #0C5A68",
"6.	c #095C6B",
"7.	c #075F6F",
"8.	c #0C697A",
"9.	c #0C6B80",
"0.	c #0C6A82",
"a.	c #0C6984",
"b.	c #0F6987",
"c.	c #12678A",
"d.	c #136489",
"e.	c #14628A",
"f.	c #145C8A",
"g.	c #135E8D",
"h.	c #125D8C",
"i.	c #10608E",
"j.	c #10638E",
"k.	c #115687",
"l.	c #035671",
"m.	c #4D4747",
"n.	c #080E12",
"o.	c #244E5A",
"p.	c #074F6D",
"q.	c #0A576A",
"r.	c #075369",
"s.	c #04516A",
"t.	c #045C72",
"u.	c #076279",
"v.	c #0A637C",
"w.	c #0B607F",
"x.	c #0D6083",
"y.	c #0F6187",
"z.	c #0D5887",
"A.	c #095885",
"B.	c #095687",
"C.	c #0E5B8C",
"D.	c #0F5C8D",
"E.	c #0E5E8C",
"F.	c #0C5C8A",
"G.	c #06588C",
"H.	c #004968",
"I.	c #3C3C3C",
"J.	c #414A4F",
"K.	c #162024",
"L.	c #010A0B",
"M.	c #003D44",
"N.	c #005655",
"O.	c #005A59",
"P.	c #00595C",
"Q.	c #00605F",
"R.	c #006C6B",
"S.	c #007576",
"T.	c #00707A",
"U.	c #006B7E",
"V.	c #006882",
"W.	c #006D88",
"X.	c #006E86",
"Y.	c #007088",
"Z.	c #00708C",
"`.	c #00738C",
" +	c #00758A",
".+	c #006867",
"++	c #3A3A3A",
"@+	c #3C3B3D",
"#+	c #4F4B3F",
"$+	c #000606",
"%+	c #001414",
"&+	c #003D46",
"*+	c #004A49",
"=+	c #005C5B",
"-+	c #005E5D",
";+	c #006463",
">+	c #00727C",
",+	c #00687E",
"'+	c #00627E",
")+	c #006886",
"!+	c #006B86",
"~+	c #006E8A",
"{+	c #00728A",
"]+	c #00778C",
"^+	c #00788E",
"/+	c #006A69",
"(+	c #393939",
"_+	c #3A2E28",
":+	c #010504",
"<+	c #001212",
"[+	c #004446",
"}+	c #005453",
"|+	c #005857",
"1+	c #005251",
"2+	c #00656E",
"3+	c #006270",
"4+	c #006078",
"5+	c #00657E",
"6+	c #006080",
"7+	c #006384",
"8+	c #006D84",
"9+	c #007388",
"0+	c #007C8E",
"a+	c #00788A",
"b+	c #006261",
"c+	c #2F2F2F",
"d+	c #373737",
"e+	c #000508",
"f+	c #000A0A",
"g+	c #004044",
"h+	c #004E4D",
"i+	c #006266",
"j+	c #006470",
"k+	c #006672",
"l+	c #006476",
"m+	c #00637C",
"n+	c #005F7E",
"o+	c #005F82",
"p+	c #006286",
"q+	c #006586",
"r+	c #007A8C",
"s+	c #007D8C",
"t+	c #007B8A",
"u+	c #232323",
"v+	c #242424",
"w+	c #2C2C2C",
"x+	c #333333",
"y+	c #161E1D",
"z+	c #002828",
"A+	c #006364",
"B+	c #00666A",
"C+	c #006770",
"D+	c #006274",
"E+	c #005D78",
"F+	c #00567A",
"G+	c #005A80",
"H+	c #005A84",
"I+	c #006684",
"J+	c #007F8A",
"K+	c #1F1F1F",
"L+	c #202020",
"M+	c #252525",
"N+	c #303030",
"O+	c #494F4D",
"P+	c #2A2E2D",
"Q+	c #030505",
"R+	c #010505",
"S+	c #003635",
"T+	c #005E64",
"U+	c #005A6A",
"V+	c #006074",
"W+	c #00647A",
"X+	c #00597E",
"Y+	c #005982",
"Z+	c #006B8A",
"`+	c #00758E",
" @	c #00848C",
".@	c #262626",
"+@	c #504940",
"@@	c #35302F",
"#@	c #0C080B",
"$@	c #020606",
"%@	c #000404",
"&@	c #00302F",
"*@	c #005154",
"=@	c #005B66",
"-@	c #005368",
";@	c #004E72",
">@	c #004F74",
",@	c #005278",
"'@	c #005376",
")@	c #005A78",
"!@	c #006B82",
"~@	c #00717E",
"{@	c #008186",
"]@	c #1E1E1E",
"^@	c #1D1D1D",
"/@	c #222426",
"(@	c #272925",
"_@	c #2D2D2D",
":@	c #2B2B2B",
"<@	c #0E0C12",
"[@	c #050206",
"}@	c #000000",
"|@	c #040204",
"1@	c #000A08",
"2@	c #010609",
"3@	c #000408",
"4@	c #00070A",
"5@	c #02090C",
"6@	c #02080A",
"7@	c #00080A",
"8@	c #020C0C",
"9@	c #020A0C",
"0@	c #010705",
"a@	c #212121",
"b@	c #212425",
"c@	c #232325",
"d@	c #2F302E",
"e@	c #343432",
"f@	c #373834",
"g@	c #3B3B37",
"h@	c #3C3D37",
"i@	c #3D3D39",
"j@	c #40403A",
"k@	c #40403C",
"l@	c #43423D",
"m@	c #45453F",
"n@	c #464640",
"o@	c #474743",
"p@	c #4A4A44",
"q@	c #4C4B46",
"r@	c #4E4D48",
"s@	c #504F4A",
"t@	c #52514C",
"u@	c #222022",
"v@	c #242224",
"w@	c #282628",
"x@	c #29282A",
"y@	c #2B292D",
"z@	c #1C1C1C",
"A@	c #212323",
"B@	c #222020",
"C@	c #1B1B1B",
"D@	c #1A1A1A",
"E@	c #171717",
"F@	c #151515",
"G@	c #131313",
"H@	c #161616",
"I@	c #141414",
"J@	c #181818",
". + @ # $ % & * = - ; > , ' ) ! ~ { ] ^ / ( _ : < [ } | 1 ",
"2 3 4 5 6 7 8 9 0 a b c d e f g h i j k l m n o p q r s t ",
"u v w x y z A B C D E F G H I J K L M N O P Q R S T U V W ",
"X Y Z `  ...+.@.B #.$.%.&.*.=.-.;.>.,.'.).!.~.{.].{.^./.(.",
"_._.:.<.[.}.|.1.2.3.4.5.6.7.8.9.0.a.b.c.d.e.f.g.h.i.j.k.l.",
"_._.m.n.o.|.p.A q.r.s.H *.t.u.v.w.x.y.z.A.B.C.D.D.E.F.G.H.",
"I.I.J.K.L.M.N.O.P.N.O.O.O.Q.R.S.T.U.V.W.X.Y.Z.`.`. + +`..+",
"++++@+#+$+%+&+*+=+Q.Q.O.-+;+R.S.>+,+'+)+!+W.~+{+]+^+^+^+/+",
"++++(+(+_+:+<+[+}+|+1+1+|+;+R.2+3+4+5+'+6+7+)+8+9+]+0+a+b+",
"c+d+d+d+d+d+e+f+g+h+-+-+|+O.i+j+k+l+m+n+o+p+q+!+ +r+s+t+Q.",
"u+v+w+x+x+x+x+y+$+z+*+O.O.-+A+B+C+D+E+F+G+H+p+I+W.`.a+J+=+",
"u+K+L+M+w+N+N+O+P+Q+R+S+*+=+b+T+U+V+W+F+X+Y+o+7+Z+`+r+ @=+",
"L+L+K+K+L+.@c+c+c++@@@#@$@%@&@*@=@-@W ;@>@,@'@)@'+!@~@{@1+",
"]@K+L+L+]@^@^@u+/@(@_@_@_@:@<@[@}@|@1@2@3@4@5@6@7@8@4@9@0@",
"]@]@]@]@]@]@]@]@a@b@c@_@d@e@f@g@h@i@j@k@l@m@n@o@p@q@r@s@t@",
"^@^@^@^@^@^@^@^@^@^@^@]@u@v@M+w@x@y@y@y@y@y@y@y@y@y@y@y@y@",
"z@z@K+u+.@.@.@L+z@z@z@z@z@z@z@z@z@z@z@z@z@z@z@z@z@z@z@z@z@",
"]@a@u+u+u+u+u+u+u+u+u+u+u+u+u+u+A@K+^@^@^@^@^@^@^@^@^@^@^@",
"a@a@a@a@a@a@a@a@a@a@a@a@a@a@a@a@a@a@a@a@a@B@L+K+]@^@z@C@C@",
"K+K+K+K+K+K+K+K+K+K+K+K+z@D@D@z@K+K+K+K+^@C@D@D@D@D@C@C@C@",
"^@^@^@^@^@^@^@^@^@^@^@^@^@z@D@E@F@G@H@F@I@F@H@H@H@H@H@H@H@",
"L+L+L+L+L+L+L+L+L+L+L+L+L+L+K+z@J@H@E@E@E@E@J@J@E@H@J@J@J@",
"K+K+K+K+K+K+K+K+K+K+K+K+K+K+K+K+K+K+^@z@z@C@C@z@z@^@^@]@K+",
"J@J@J@J@J@J@J@J@J@J@J@J@J@J@J@J@J@J@J@J@J@J@J@J@J@J@J@J@J@"};
