/* XPM */
static char * hide_pressed_xpm[] = {
"28 24 398 2",
"  	c None",
". 	c #1B2021",
"+ 	c #A3C1E3",
"@ 	c #99BEE7",
"# 	c #91BCE9",
"$ 	c #8DB6E5",
"% 	c #97BDEB",
"& 	c #8EB1E0",
"* 	c #92B7EA",
"= 	c #8CAFE4",
"- 	c #92C7F0",
"; 	c #93C2ED",
"> 	c #92BEEC",
", 	c #8CC1F2",
"' 	c #99CEF7",
") 	c #A1D3ED",
"! 	c #A0D9F6",
"~ 	c #96CCFA",
"{ 	c #94D5FE",
"] 	c #90C2F0",
"^ 	c #A0E7FE",
"/ 	c #A2E3FE",
"( 	c #9EDBFE",
"_ 	c #A3CFF5",
": 	c #AAE5FE",
"< 	c #A2D8FE",
"[ 	c #A5D3F7",
"} 	c #AFDEFF",
"| 	c #72C7E0",
"1 	c #1A1F20",
"2 	c #5483AA",
"3 	c #5A96C8",
"4 	c #5799D7",
"5 	c #5B97D5",
"6 	c #649BD8",
"7 	c #609ED8",
"8 	c #559AD5",
"9 	c #5EA7E0",
"0 	c #5A9ADC",
"a 	c #5A8CD6",
"b 	c #64A5E2",
"c 	c #5EAFEE",
"d 	c #5F9FE7",
"e 	c #6FAAED",
"f 	c #6EBCF8",
"g 	c #68B7FA",
"h 	c #78B9F6",
"i 	c #7DC9F9",
"j 	c #81CFFB",
"k 	c #80D0FE",
"l 	c #86C0F6",
"m 	c #95D1FF",
"n 	c #96D0FC",
"o 	c #93C8FF",
"p 	c #A7CFF7",
"q 	c #A9D1F9",
"r 	c #72B4D2",
"s 	c #393E3F",
"t 	c #3A5D76",
"u 	c #548AB8",
"v 	c #5092D0",
"w 	c #538FCD",
"x 	c #4F88BD",
"y 	c #5598CB",
"z 	c #54A4D2",
"A 	c #53A7D3",
"B 	c #52ABD4",
"C 	c #53A9D5",
"D 	c #4CB4E4",
"E 	c #3F8FAD",
"F 	c #3B7E9D",
"G 	c #49ADE1",
"H 	c #52C0EE",
"I 	c #52CAF2",
"J 	c #4EC8F0",
"K 	c #3FBFF5",
"L 	c #4AC3E2",
"M 	c #25708F",
"N 	c #43CEF1",
"O 	c #4BCEFF",
"P 	c #58D9FA",
"Q 	c #5CD6FE",
"R 	c #53D7FD",
"S 	c #4CDAFE",
"T 	c #2FB5D7",
"U 	c #535557",
"V 	c #112533",
"W 	c #5A8CB2",
"X 	c #4D92CD",
"Y 	c #4D91CB",
"Z 	c #5A98CC",
"` 	c #59A0D1",
" .	c #56A6D0",
"..	c #5DA7CD",
"+.	c #57B1D3",
"@.	c #4FB3DD",
"#.	c #4F869F",
"$.	c #203E46",
"%.	c #327692",
"&.	c #5DC4EB",
"*.	c #57CDEF",
"=.	c #5FE2F9",
"-.	c #3CB6DE",
";.	c #0C3A5A",
">.	c #2D6773",
",.	c #52D5F2",
"'.	c #48BFF6",
").	c #58D9FE",
"!.	c #57C6F5",
"~.	c #55D7FD",
"{.	c #53DCFF",
"].	c #33B0CF",
"^.	c #4C4C4C",
"/.	c #516F89",
"(.	c #518DB7",
"_.	c #5396C9",
":.	c #579BCB",
"<.	c #5194C7",
"[.	c #5A9CCA",
"}.	c #4B99CF",
"|.	c #51AED5",
"1.	c #55C2DD",
"2.	c #67C9ED",
"3.	c #5E8FAE",
"4.	c #193B4B",
"5.	c #2C819A",
"6.	c #4AC9F2",
"7.	c #52C2D6",
"8.	c #1D475B",
"9.	c #346976",
"0.	c #82D5F0",
"a.	c #59D9F9",
"b.	c #5ADAFE",
"c.	c #4FD3FF",
"d.	c #49D6FF",
"e.	c #57E1FF",
"f.	c #4FE0FF",
"g.	c #3AC9DA",
"h.	c #4D4747",
"i.	c #132029",
"j.	c #6D97AF",
"k.	c #559AC1",
"l.	c #53A3D1",
"m.	c #4F9CCD",
"n.	c #4C94C6",
"o.	c #4D93C9",
"p.	c #428DCC",
"q.	c #499CCB",
"r.	c #43B0DD",
"s.	c #53B8D5",
"t.	c #68C1E6",
"u.	c #5C95B6",
"v.	c #143E4C",
"w.	c #4AC3F0",
"x.	c #3F7C93",
"y.	c #2B5F73",
"z.	c #86D7EC",
"A.	c #58C4EC",
"B.	c #49BCF1",
"C.	c #45CBF7",
"D.	c #4AC8FC",
"E.	c #40C5FC",
"F.	c #39B1EF",
"G.	c #41BDFD",
"H.	c #2BA5CD",
"I.	c #3C3C3C",
"J.	c #414A4F",
"K.	c #192529",
"L.	c #17384B",
"M.	c #246E98",
"N.	c #1275AE",
"O.	c #1278B2",
"P.	c #1580B7",
"Q.	c #0E7DBC",
"R.	c #0F7BB9",
"S.	c #1C94C0",
"T.	c #0189C9",
"U.	c #086280",
"V.	c #066A7C",
"W.	c #3CABD4",
"X.	c #4692AE",
"Y.	c #18ADDE",
"Z.	c #38A4B8",
"`.	c #5DCCF1",
" +	c #25B2C3",
".+	c #006378",
"++	c #10C7EE",
"@+	c #0FCFFF",
"#+	c #12D5F8",
"$+	c #15DBFF",
"%+	c #0FC1F5",
"&+	c #13D0FF",
"*+	c #0EA9CA",
"=+	c #3A3A3A",
"-+	c #3C3B3D",
";+	c #4F4B3F",
">+	c #000A0A",
",+	c #0A4364",
"'+	c #1873A8",
")+	c #0F78A9",
"!+	c #1486B6",
"~+	c #088BC2",
"{+	c #0D8FBF",
"]+	c #119FC3",
"^+	c #0B9DC7",
"/+	c #3B97B1",
"(+	c #16494A",
"_+	c #015567",
":+	c #37C5ED",
"<+	c #08BDEA",
"[+	c #2CBEEE",
"}+	c #0D9CBF",
"|+	c #003C50",
"1+	c #216683",
"2+	c #1EBFE8",
"3+	c #01C0F7",
"4+	c #13D5FF",
"5+	c #0DCCF5",
"6+	c #0FCDFD",
"7+	c #10AAC6",
"8+	c #393939",
"9+	c #3A2E28",
"0+	c #020C09",
"a+	c #1F4E5D",
"b+	c #22789C",
"c+	c #0878AC",
"d+	c #0587BD",
"e+	c #0F95C1",
"f+	c #0385B5",
"g+	c #0EA4C4",
"h+	c #27ACC9",
"i+	c #4FA4C7",
"j+	c #0B494D",
"k+	c #0C606A",
"l+	c #0CA9E4",
"m+	c #1195BB",
"n+	c #004354",
"o+	c #35808B",
"p+	c #58DDFE",
"q+	c #09B4F3",
"r+	c #07BAF5",
"s+	c #15D0FF",
"t+	c #13CAFF",
"u+	c #10BDFE",
"v+	c #13C4FF",
"w+	c #1396B7",
"x+	c #373737",
"y+	c #000A10",
"z+	c #113B4D",
"A+	c #247A96",
"B+	c #0A7EA4",
"C+	c #0D9EBD",
"D+	c #0083B4",
"E+	c #0092BC",
"F+	c #008BB8",
"G+	c #1F9EC3",
"H+	c #69B3C1",
"I+	c #02334A",
"J+	c #1AB1DC",
"K+	c #14698C",
"L+	c #2A6A88",
"M+	c #64CAE8",
"N+	c #14B4E2",
"O+	c #10BDF6",
"P+	c #1BCBF7",
"Q+	c #1DD2F9",
"R+	c #15BAF7",
"S+	c #1BC1FF",
"T+	c #19C6FF",
"U+	c #17A0BD",
"V+	c #242424",
"W+	c #2C2C2C",
"X+	c #333333",
"Y+	c #1C2625",
"Z+	c #002020",
"`+	c #1F5B6D",
" @	c #1290B0",
".@	c #048EB0",
"+@	c #08ACC4",
"@@	c #00A3C6",
"#@	c #2BAECF",
"$@	c #4D98C3",
"%@	c #13A2D1",
"&@	c #399AC3",
"*@	c #52BDEA",
"=@	c #13B5E3",
"-@	c #06CCFE",
";@	c #01C1F1",
">@	c #12CCF4",
",@	c #19C9FB",
"'@	c #09A0EF",
")@	c #1AACF8",
"!@	c #18B1F8",
"~@	c #0B88B7",
"{@	c #1F1F1F",
"]@	c #202020",
"^@	c #252525",
"/@	c #303030",
"(@	c #494F4D",
"_@	c #2C302F",
":@	c #050706",
"<@	c #09282D",
"[@	c #18667A",
"}@	c #15A2B3",
"|@	c #0897B6",
"1@	c #039AC5",
"2@	c #07AACD",
"3@	c #25AFD7",
"4@	c #08A2D4",
"5@	c #25B8E3",
"6@	c #13B1D9",
"7@	c #0BC2E9",
"8@	c #0FD5F9",
"9@	c #15D6F9",
"0@	c #13D6F9",
"a@	c #11CCFB",
"b@	c #12B5F2",
"c@	c #1BB6F7",
"d@	c #1EBFFA",
"e@	c #0993BB",
"f@	c #262626",
"g@	c #2F2F2F",
"h@	c #504940",
"i@	c #363130",
"j@	c #120C10",
"k@	c #071311",
"l@	c #0E3C3C",
"m@	c #0F667F",
"n@	c #0C95B2",
"o@	c #12AFCC",
"p@	c #0DA4C5",
"q@	c #06A9D8",
"r@	c #069ED0",
"s@	c #0CACDA",
"t@	c #0AB4DE",
"u@	c #06B1DC",
"v@	c #04BBE2",
"w@	c #02B7E4",
"x@	c #10BBEC",
"y@	c #0DB0E5",
"z@	c #14BBEC",
"A@	c #06A1C2",
"B@	c #1E1E1E",
"C@	c #1D1D1D",
"D@	c #232323",
"E@	c #222426",
"F@	c #272925",
"G@	c #2D2D2D",
"H@	c #14111B",
"I@	c #0C050D",
"J@	c #000202",
"K@	c #070408",
"L@	c #001A14",
"M@	c #020D16",
"N@	c #000912",
"O@	c #00121A",
"P@	c #05171D",
"Q@	c #041218",
"R@	c #001216",
"S@	c #041C1E",
"T@	c #04191E",
"U@	c #030F0B",
"V@	c #212121",
"W@	c #212425",
"X@	c #232325",
"Y@	c #2F302E",
"Z@	c #343432",
"`@	c #373834",
" #	c #3B3B37",
".#	c #3C3D37",
"+#	c #3D3D39",
"@#	c #40403A",
"##	c #40403C",
"$#	c #43423D",
"%#	c #45453F",
"&#	c #464640",
"*#	c #474743",
"=#	c #4A4A44",
"-#	c #4C4B46",
";#	c #4E4D48",
">#	c #504F4A",
",#	c #52514C",
"'#	c #222022",
")#	c #242224",
"!#	c #282628",
"~#	c #29282A",
"{#	c #2B292D",
"]#	c #1C1C1C",
"^#	c #212323",
"/#	c #222020",
"(#	c #1B1B1B",
"_#	c #1A1A1A",
":#	c #171717",
"<#	c #151515",
"[#	c #131313",
"}#	c #161616",
"|#	c #141414",
"1#	c #181818",
". + @ # $ % & * = - ; > , ' ) ! ~ { ] ^ / ( _ : < [ } | ",
"1 2 3 4 5 6 7 8 9 0 a b c d e f g h i j k l m n o p q r ",
"s t u v w x y z A B C D E F G H I J K L M N O P Q R S T ",
"U V W X Y Z ` z  ...+.@.#.$.%.&.*.=.-.;.>.,.'.).!.~.{.].",
"^.^./.(._.:._.<.[.}.|.1.2.3.4.5.6.7.8.9.0.a.b.c.d.e.f.g.",
"^.h.i.j.k.l.m.n.o.p.q.r.s.t.u.v.w.x.y.z.A.B.C.D.E.F.G.H.",
"I.J.K.L.M.N.O.P.Q.R.S.T.U.V.W.X.Y.Z.`. +.+++@+#+$+%+&+*+",
"=+-+;+>+,+'+)+!+~+{+]+^+/+(+_+:+<+[+}+|+1+2+3+4+5+6+&+7+",
"=+8+8+9+0+a+b+c+d+e+f+g+h+i+j+k+l+m+n+o+p+q+r+s+t+u+v+w+",
"x+x+x+x+x+y+z+A+B+C+D+E+F+G+H+I+J+K+L+M+N+O+P+Q+R+S+T+U+",
"V+W+X+X+X+X+Y+Z+`+ @.@+@g+@@#@$@%@&@*@=@-@;@>@,@'@)@!@~@",
"{@]@^@W+/@/@(@_@:@<@[@}@|@1@2@3@4@5@6@7@8@9@0@a@b@c@d@e@",
"]@{@{@]@f@g@g@g@h@i@j@k@l@m@n@o@p@q@r@s@t@u@v@w@x@y@z@A@",
"{@]@]@B@C@C@D@E@F@G@G@G@G@H@I@J@K@L@M@N@O@P@Q@R@S@O@T@U@",
"B@B@B@B@B@B@B@V@W@X@G@Y@Z@`@ #.#+#@###$#%#&#*#=#-#;#>#,#",
"C@C@C@C@C@C@C@C@C@C@B@'#)#^@!#~#{#{#{#{#{#{#{#{#{#{#{#{#",
"]#{@D@f@f@f@]@]#]#]#]#]#]#]#]#]#]#]#]#]#]#]#]#]#]#]#]#]#",
"V@D@D@D@D@D@D@D@D@D@D@D@D@D@D@^#{@C@C@C@C@C@C@C@C@C@C@C@",
"V@V@V@V@V@V@V@V@V@V@V@V@V@V@V@V@V@V@V@V@/#]@{@B@C@]#(#(#",
"{@{@{@{@{@{@{@{@{@{@{@]#_#_#]#{@{@{@{@C@(#_#_#_#_#(#(#(#",
"C@C@C@C@C@C@C@C@C@C@C@C@]#_#:#<#[#}#<#|#<#}#}#}#}#}#}#}#",
"]@]@]@]@]@]@]@]@]@]@]@]@]@{@]#1#}#:#:#:#:#1#1#:#}#1#1#1#",
"{@{@{@{@{@{@{@{@{@{@{@{@{@{@{@{@{@C@]#]#(#(#]#]#C@C@B@{@",
"1#1#1#1#1#1#1#1#1#1#1#1#1#1#1#1#1#1#1#1#1#1#1#1#1#1#1#1#"};
