/* XPM */
static char * title_5_active_xpm[] = {
"72 24 111 2",
"  	c #848484",
". 	c #848584",
"+ 	c #858485",
"@ 	c #858585",
"# 	c #868686",
"$ 	c #868685",
"% 	c #878787",
"& 	c #888687",
"* 	c #888787",
"= 	c #888788",
"- 	c #888888",
"; 	c #898888",
"> 	c #8A8989",
", 	c #8A8A89",
"' 	c #8B8A8A",
") 	c #8B8A8B",
"! 	c #8C8B8B",
"~ 	c #8D8B8C",
"{ 	c #8E8C8C",
"] 	c #8E8D8D",
"^ 	c #8F8D8E",
"/ 	c #8F8E8E",
"( 	c #908F8F",
"_ 	c #918F8F",
": 	c #918F90",
"< 	c #919090",
"[ 	c #929090",
"} 	c #929091",
"| 	c #939191",
"1 	c #939292",
"2 	c #949293",
"3 	c #959393",
"4 	c #959394",
"5 	c #969495",
"6 	c #979495",
"7 	c #979595",
"8 	c #989595",
"9 	c #989596",
"0 	c #999597",
"a 	c #999697",
"b 	c #9A9797",
"c 	c #9B9798",
"d 	c #9B9899",
"e 	c #9C9899",
"f 	c #9C9999",
"g 	c #9D9999",
"h 	c #9D999A",
"i 	c #9E999A",
"j 	c #9E9A9B",
"k 	c #9D9A9B",
"l 	c #9E9B9C",
"m 	c #9F9A9B",
"n 	c #9E9A9C",
"o 	c #535353",
"p 	c #5F5B5C",
"q 	c #525252",
"r 	c #5B5758",
"s 	c #505050",
"t 	c #4C4C4C",
"u 	c #474747",
"v 	c #454545",
"w 	c #424242",
"x 	c #404040",
"y 	c #3D3D3D",
"z 	c #3F3F3F",
"A 	c #444444",
"B 	c #494949",
"C 	c #484848",
"D 	c #464646",
"E 	c #434343",
"F 	c #3A3A3A",
"G 	c #363636",
"H 	c #3E3E3E",
"I 	c #4B4B4B",
"J 	c #414141",
"K 	c #383838",
"L 	c #373737",
"M 	c #3C3C3C",
"N 	c #353535",
"O 	c #393939",
"P 	c #343434",
"Q 	c #323232",
"R 	c #333333",
"S 	c #313131",
"T 	c #2B2B2B",
"U 	c #3B3B3B",
"V 	c #303030",
"W 	c #2C2C2C",
"X 	c #2D2D2D",
"Y 	c #2F2F2F",
"Z 	c #292929",
"` 	c #2A2A2A",
" .	c #282828",
"..	c #272727",
"+.	c #2E2E2E",
"@.	c #252525",
"#.	c #242424",
"$.	c #232323",
"%.	c #262626",
"&.	c #222222",
"*.	c #212121",
"=.	c #202020",
"-.	c #1F1F1F",
";.	c #1E1E1E",
">.	c #282928",
",.	c #1D1D1D",
"'.	c #1C1C1C",
").	c #1B1B1B",
"!.	c #191919",
"~.	c #1A1A1A",
"{.	c #181818",
"      . + @ @ # $ # # % & * = * - ; > > , ' ' ) ! ! ~ { { ] ^ ^ / ( _ : < [ } | | 1 2 2 3 4 5 5 6 7 8 9 0 a a b c c c d e f g h h i j k j l m n ",
"o o o o o o o o o o o o o o o o o o o o o o o o o o o o o o o o o o o o o o o o o o o o o o o o o o o o o o o o o o o o o o o o o o o o o o o p ",
"q q q q q q q q q q q q q q q q q q q q q q q q q q q q q q q q q q q q q q q q q q q q q q q q q q q q q q q q q q q q q q q q q q q q q q q r ",
"s s s s s s s s s s s s s s s s s s s s s s s s s s s s s s s s s s s s s s s s s s s t t u v w x y y z w w A u B t s s s s s s s s s s s s s s ",
"t t t t t t t t C D E z F F G G G G F H E I t t t t t t t t t t t t t t C A J H F K G G G G G G G G G G G G G G G G L M J C t t t t t t t t t t ",
"u w w x H F K N N N N N N N N N N N N N N G y D I I I I D H y H H F L N N N N N N N N N N N N N N N N N N N N N N N N N N N L z C t t t t t t t ",
"y M O G G G P Q Q Q Q Q Q G G G L G R S T T T T S U y y y y K V W T T T T X Y Q R G K F F M y y U O Y T T T T T T T T T T T T T T V O M M M M M ",
"F F F F F F F F F F F F F F F F F F F F F S Z Z Z ` Q F F F F F F F K F F F F F F F F F F F F F F F N Z Z Z Z Z Z Z Z Z Z Z Z Z Z Z Z Y K F F F ",
"O O O O O O O O O O O O O O O O O O O O O O R  . . . .Z S K O O O O O O O O O O O O O O O O O O O K Y  . . . . . . . . . . . . . . . . . .Y L F ",
"L L L L L L L L N Q V Y V V S P L L L L L L L W ............T S P G G G G G G G G G G G G G G S +. ...........................................Y ",
"R R R R R R V X ` ..@.#.$.$. .W S R R R R R S ..@.@.@.@.@.@.@.@.@.%. .` W X X Y V X X T ` Z %.@.@.@.@.@.@.@.@.%...` ` X ` ` ` ..@.@.@.@.@.@.@.$.",
"S S S S S S S S S S S S X T $.&.&.$.@.@.$.*.$.$.$.$.$.$.$.$.$.$.$.$.$.$.$.$.$.$.$.$.$.$.$.$.$.$.$.$.$.#...` +.S S S S S S S S S V W @.$.$.$.$.$.",
"Y Y Y Y Y Y Y Y Y Y Y Y Y Y Y Y #.=.=.*.&.&.*.*.*.*.*.*.*.*.*.*.*.*.*.*.*.*.*.*.*.*.*.*.*.*.$.@...Z W Y Y Y Y Y Y Y Y Y Y Y Y Y Y Y Y  .*.*.*.=.",
"X X X X X X X X X X X X X X X X ` ..&.-.-.=.-.-.-.-.-.-.&.#.%. .Z ` W ` Z Z Z Z  .Z Z Z ` W W W W W W W Z Z Z Z W W W W W W W W W W W T -.-.-.;.",
"` ` ` ` ` ` ` ` ` ` ` ` ` ` ` ` ` ` ` ` >.%.#.@.%... .` ` ` ` ` ` ` ` ` ` ` ` ` ` ` ` ` ` ` ` ` ..#.*.;.;.;.;.;.;.-.*.$.@.........%.@.=.;.;.;.;.",
"..............................................................................................=.;.;.;.;.,.,.,.,.,.,.,.,.,.,.,.,.,.,.,.,.,.,.,.,.",
"%.%.%.%.%.%.%.%.%.%.%.%.%.%.%.%.%.%.%.%.%.%.%.%.%.%.%.%.%.%.%.%.%.%.%.%.%.%.%.%.%.%.%.%.%.%.%.%.%.%.%.%.%.$.=.'.).).).).).).).).).).).).).).).'.",
"$.$.$.$.$.$.$.$.$.$.$.$.$.$.$.$.$.$.$.$.$.$.$.$.$.$.$.$.$.$.$.$.$.$.$.$.$.$.$.$.$.$.$.$.$.$.$.$.$.$.$.$.$.$.$.$.=.;.).!.!.!.!.!.!.!.!.!.!.!.).;.",
"*.*.*.*.*.*.*.*.*.*.*.*.*.*.*.*.*.*.*.*.*.*.*.*.*.*.*.*.*.*.*.*.*.*.*.*.*.*.*.*.*.*.*.*.*.*.*.*.*.*.*.*.*.*.*.*.*.*.*.=.;.,.'.~.~.~.~.'.;.=.*.*.",
"-.-.-.-.-.-.-.-.-.-.-.-.-.-.-.-.-.-.-.-.-.-.-.-.-.-.-.-.-.-.-.-.-.-.-.-.-.-.-.-.-.-.-.-.-.-.-.-.-.-.-.-.-.-.-.-.-.-.-.-.-.-.-.-.-.-.-.-.-.-.-.-.",
",.,.,.,.,.,.,.,.,.,.,.,.,.,.,.,.,.,.,.,.,.,.,.,.,.,.,.,.,.,.,.,.,.,.,.,.,.,.,.,.,.,.,.,.,.,.,.,.,.,.,.,.,.,.,.,.,.,.,.,.,.,.,.,.,.,.,.,.,.,.,.,.",
"=.=.=.=.=.=.=.=.=.=.=.=.=.=.=.=.=.=.=.=.=.=.=.=.=.=.=.=.=.=.=.=.=.=.=.=.=.=.=.=.=.=.=.=.=.=.=.=.=.=.=.=.=.=.=.=.=.=.=.=.=.=.=.=.=.=.=.=.=.=.=.=.",
"-.-.-.-.-.-.-.-.-.-.-.-.-.-.-.-.-.-.-.-.-.-.-.-.-.-.-.-.-.-.-.-.-.-.-.-.-.-.-.-.-.-.-.-.-.-.-.-.-.-.-.-.-.-.-.-.-.-.-.-.-.-.-.-.-.-.-.-.-.-.-.-.",
"{.{.{.{.{.{.{.{.{.{.{.{.{.{.{.{.{.{.{.{.{.{.{.{.{.{.{.{.{.{.{.{.{.{.{.{.{.{.{.{.{.{.{.{.{.{.{.{.{.{.{.{.{.{.{.{.{.{.{.{.{.{.{.{.{.{.{.{.{.{.{.{."};
