/* XPM */
static char * title_4_active_xpm[] = {
"1 24 22 1",
" 	c #848484",
".	c #535353",
"+	c #525252",
"@	c #505050",
"#	c #4C4C4C",
"$	c #3C3C3C",
"%	c #3A3A3A",
"&	c #393939",
"*	c #373737",
"=	c #333333",
"-	c #313131",
";	c #2F2F2F",
">	c #2D2D2D",
",	c #2A2A2A",
"'	c #272727",
")	c #262626",
"!	c #232323",
"~	c #212121",
"{	c #1F1F1F",
"]	c #1D1D1D",
"^	c #202020",
"/	c #181818",
" ",
".",
"+",
"@",
"#",
"#",
"$",
"%",
"&",
"*",
"=",
"-",
";",
">",
",",
"'",
")",
"!",
"~",
"{",
"]",
"^",
"{",
"/"};
